<?xml version="1.0" encoding="UTF-8"?><svg id="Layer_6" xmlns="http://www.w3.org/2000/svg" viewBox="0 0 698 612"><defs><style>.cls-1{fill:#e78c63;}.cls-2{fill:#d353a1;}.cls-3{fill:#11cfbb;}.cls-4{fill:#04b0da;}</style></defs><path class="cls-2" d="m81.4,76.02c-2.95,3.88-10.27,1.61-14.07.99-5.33-.87-10.43-1.11-15.46,1.18-8.62,3.92-13.36,12.97-14.36,22.04-1.81,16.47,5.96,47.74,28.33,43.91,10.14-1.74,12.82-11.16,17.1-19,2.4-4.4,5.72-7.53,10.58-4.26,4.18,2.81,6.55,7.74,9.86,11.42,3.03,3.36,6.66,5.76,11.04,6.97,4,1.11,10.06.76,12.86,4.24,2.94,3.66,3.39,10.51,4.47,14.93,1.46,5.96,3.4,12.01,4.36,18.07.25,1.57.98,4.94-.13,6.43-1.59,2.13-3.94-.43-4.98-1.98-3.1-4.6-3.85-11.21-6.27-16.28-4.95-10.34-12.72-18.92-22.05-25.47-4.38-3.08-8.95,2.75-6.84,6.84,4.75,9.22,9.5,18.43,14.25,27.65,4.01,7.78,7.41,17.73,13.68,24.03s13.39,4.73,21.13,3.91c3.62-.38,7.12-.35,8.94,3.3,1.42,2.85,1.39,6.4,1.29,9.5-1.19,35.19-17.9,77.46,6.16,108.48,3.06,3.94,9.99-.34,8.36-4.86-3.75-10.4-7.49-20.79-11.24-31.19l-6.15,6.15c7.34,1.71,13.55,5.19,18.79,10.62l7.07-7.07c-9.43-7.31-15.01-18.91-13.66-30.95,1.45-12.96,10.64-23.91,14.58-36.15,7.53-23.42,3.58-50.04-10.2-70.36-2.97-4.38-11.26-1.78-9.14,3.85,5.57,14.78,9.2,30.23,10.35,46,.57,7.8,1,16.07-.05,23.84-.32,2.38-1.98,8.79-5.47,6.42-2.89-1.96-1.17-7.47-.48-10,2.04-7.56,3.18-14.6,2.18-22.46-.93-7.29-3.07-14.27-5.67-21.12-5.66-14.91-11.85-28.75-10.73-45.07s5.88-33.47,9.22-49.85c2.13-10.42,8.56-31.02-7.04-34.77-5.94-1.43-11.93,2.32-14.74,7.43-3.68,6.68-1.99,14.81-1.18,21.97.88,7.73,1.93,15.46,2.62,23.2.29,3.2.65,6.91-1.04,9.81-2.2,3.77-5.9,2.62-8.17-.49s-3.06-7.36-4.2-11.05c-1.07-3.48-2.29-6.9-3.73-10.25-2.88-6.68-6.87-12.96-12.71-17.42-9.81-7.5-25.62-8.41-34.02,1.69-4.09,4.91,2.95,12.03,7.07,7.07,3.76-4.52,9.44-5.42,14.94-3.82,6.67,1.94,11.06,7.44,14.15,13.39,5.54,10.67,5.74,29.15,19.59,32.96,6.05,1.67,12.12-1.24,15.39-6.45,3.77-6.02,3.03-13.13,2.26-19.85-.92-8.14-1.9-16.27-2.78-24.41-.4-3.71-1.36-8.64.89-11.94,2.91-4.25,5.84-.66,6.05,3.1s-1.05,7.7-1.8,11.35c-.93,4.54-1.85,9.08-2.78,13.61-1.71,8.39-3.48,16.77-5.13,25.18-3.22,16.36-4.38,32.06.92,48.12,4.82,14.6,13.21,28.9,13.1,44.67-.05,7.92-4.5,15.35-3.56,23.27.65,5.48,4.1,10.94,9.67,12.39,7.44,1.95,13.86-3.84,16.05-10.51,2.56-7.8,1.8-17.34,1.44-25.42-.82-18.21-4.55-36.19-10.98-53.24-3.05,1.28-6.09,2.57-9.14,3.85,14.86,21.9,16.45,49.86,4.66,73.46-5.74,11.48-11.77,22.71-10.3,35.98,1.3,11.76,7.09,22.75,16.49,30.04,4.94,3.83,11.68-2.29,7.07-7.07-6.36-6.58-14.28-11.11-23.2-13.19-3.44-.8-7.51,2.37-6.15,6.15,3.75,10.4,7.49,20.79,11.24,31.19,2.79-1.62,5.57-3.24,8.36-4.86-11.66-15.02-10.47-35.42-8.56-53.23,1.08-10.12,2.3-20.22,3.46-30.33.92-8.05,2.65-16.42,1.54-24.53-.88-6.47-3.94-12.61-10.32-15.12-3.58-1.41-7.27-1.3-11.02-.82-3.34.43-7.47,1.7-10.68.2-3.54-1.66-5.25-6.28-6.94-9.55-2.38-4.6-4.75-9.22-7.12-13.82-4.75-9.22-9.5-18.43-14.25-27.65l-6.84,6.84c9.26,6.51,16.56,15.82,20.38,26.51,3.04,8.53,6.39,20.51,17.99,19.35,9.67-.97,11.24-11.46,9.88-19.24-1.04-5.96-2.81-11.84-4.24-17.72s-2.2-12.43-5.23-17.64c-2.07-3.57-5.36-5.93-9.22-7.24-4.85-1.65-10.53-1.16-14.66-4.56-7.44-6.11-10.62-17-21.74-17.9-11.69-.95-15.78,10.14-20.19,18.61-2.23,4.29-5.19,7.52-10.41,5.96-6-1.79-8.81-8.03-10.38-13.56-2.88-10.1-6.01-30.01,7.93-33.8,6.05-1.64,12.63,1.78,18.82,1.44,5.63-.31,10.1-2.51,13.5-6.99,3.89-5.12-4.79-10.11-8.63-5.05h0Z"/><path class="cls-2" d="m134.08,42.05c-5.97.5-12.86,2.26-14.47,8.98-1.77,7.37,5.46,12.83,12.19,10.08,5.47-2.23,11.47-7.52,9.66-14.06-1.94-7.01-12.23-7.47-14.28-.3-1.78,6.2,7.87,8.84,9.64,2.66-.83,1.88-2.11,2.44-3.84,1.7-1.06-.56-1.45-1.19-1.16-1.9-.01,0-.42.51-.63.7-.69.63-1.64,1.21-2.46,1.64-1.07.57-1.09.19-.35.69-.15-.1,1.43,1.15,1.02,1.01-.02,0,1.83-.81,2.02-.85.89-.19,1.77-.27,2.67-.35,2.69-.22,5-2.14,5-5,0-2.53-2.29-5.22-5-5h0Z"/><path class="cls-2" d="m66.75,85.61c-7.86-1.19-15.33,2-19.41,9.02-4.34,7.46-3.61,16.65-.64,24.45,2.53,6.64,6.29,15.43,14.29,16.44,8.46,1.07,13.9-6.52,16.65-13.49,3.16-8.03,3.61-17.37.92-25.61-2.49-7.65-8.69-12.14-16.28-7.34-14.48,9.15-12.53,29.37.08,38.84,2.73,2.05,6.44-.24,7.34-2.99,2.82-8.59,2.88-17.58.21-26.22-1.89-6.13-11.55-3.52-9.64,2.66,2.18,7.05,2.09,13.89-.21,20.9l7.34-2.99c-6.54-4.91-7.34-14.79-1.34-20.47,2-1.89,2.31-2.57,2.85.26.34,1.76.97,3.41,1.2,5.21.55,4.26.07,8.65-1.27,12.72-.91,2.78-3.86,10.69-7.84,7.91-2.62-1.83-4.28-7.27-5.23-10.04-2.22-6.45-2.4-21.25,8.32-19.63,6.3.95,9.01-8.68,2.66-9.64h0Z"/><path class="cls-2" d="m79.86,95.64c4.01-2.4,9.08-5.75,14-5.34s7.21,4.35,9.11,8.21c4.74,9.61,8.16,20.08,12.14,30.03,2.79-1.62,5.57-3.24,8.36-4.86-4.77-3.88-9.54-7.76-14.31-11.64-4.02-3.27-8.02-7.11-12.62-9.58-7.19-3.85-17.63-3.36-21.4,5l9.32,2.52c-.44-5.5-.88-11-1.31-16.5l-7.52,4.32c2.41,1.85,4.83,3.7,7.24,5.55,3.01,2.31,7.71-.82,7.52-4.32l-.33-6.16-9.32,2.52,5.38,7.31c2.85,3.87,9.15,2.75,9.32-2.52l.19-6.31-9.32,2.52,5.38,7.76c2.82,4.08,9.05,2.59,9.32-2.52l.41-7.73-9.82,1.33,4.32,10.62c1.91,4.69,10.47,4.82,9.82-1.33l-.93-8.88-9.82,1.33c2.34,5.98,4.39,11.71,8.07,17.01,3.39,4.89,7.22,9.5,11.47,13.67,6.77,6.63,17.36,16.15,26.62,8.32l-8.36-2.21c.54,3.9,1.09,7.8,1.63,11.7.88,6.35,10.52,3.65,9.64-2.66-.54-3.9-1.09-7.8-1.63-11.7s-5.86-4.32-8.36-2.21c-3.19,2.7-15.19-11.03-17.04-13.14-5.76-6.56-9.25-13.36-12.4-21.45-1.86-4.77-10.46-4.76-9.82,1.33l.93,8.88,9.82-1.33-4.32-10.62c-2.07-5.08-9.51-4.62-9.82,1.33l-.41,7.73,9.32-2.52-5.38-7.76c-2.78-4.01-9.16-2.64-9.32,2.52l-.19,6.31,9.32-2.52c-1.79-2.44-3.59-4.87-5.38-7.31-2.67-3.63-9.61-2.91-9.32,2.52l.33,6.16,7.52-4.32c-2.41-1.85-4.83-3.7-7.24-5.55-2.95-2.27-7.8.79-7.52,4.32.44,5.5.88,11,1.31,16.5.35,4.41,7.08,7.48,9.32,2.52,2.95-6.55,11.37.96,14.55,3.54,6.03,4.9,12.05,9.8,18.08,14.7,3.38,2.75,10.42.31,8.36-4.86-2.9-7.26-5.8-14.53-8.7-21.79-2.24-5.62-4.23-11.56-8.03-16.36-9.06-11.42-22.5-7.16-33.21-.73-5.51,3.31-.49,11.96,5.05,8.63h0Z"/><path class="cls-2" d="m72.2,82.87l-1.33,1.54c-.43.5-.95,1.03-1.28,1.59-.49.84-.71,1.81-.7,2.78.02,1.58.69,3.11,1.83,4.21s2.81,1.89,4.34,1.68c1.38-.18,2.51-.44,3.54-1.46.87-.87,1.52-2.29,1.46-3.54s-.48-2.63-1.46-3.54c-.9-.83-2.26-1.63-3.54-1.46-.11.03-.23.03-.34,0l1.33.18-.17-.05,1.19.5c-.11-.04-.21-.1-.3-.18l1.01.78-.12-.12.78,1.01c-.08-.09-.14-.19-.18-.3l.5,1.19-.05-.17.18,1.33c-.02-.12-.02-.23,0-.34l-1.46,3.54,1.83-2.11c.88-1.02,1.46-2.16,1.46-3.54,0-1.23-.54-2.69-1.46-3.54s-2.2-1.52-3.54-1.46-2.67.47-3.54,1.46h0Z"/><path class="cls-2" d="m145.16,70.76c-.58,8.79-1.16,17.57-1.75,26.36-.43,6.42,9.58,6.4,10,0,.58-8.79,1.16-17.57,1.75-26.36.43-6.42-9.58-6.4-10,0h0Z"/><path class="cls-2" d="m145.02,193.64c2.97-1.21,5.24-3.18,6.24-6.33.87-2.73.59-5.78-.96-8.22-3.46-5.4-11.8-.6-8.63,5.05,1.94,3.47,3.88,6.93,5.82,10.4,3.15,5.62,11.79.58,8.63-5.05-1.94-3.47-3.88-6.93-5.82-10.4l-8.63,5.05c.57.89-.01.03.1-.29-.3.85.19-.2,0,.34-.09.28-.09.31,0,.08.13-.3.07-.21-.18.26.21-.08.49-.43.78-.54-2.5,1.01-4.27,3.33-3.49,6.15.65,2.37,3.63,4.51,6.15,3.49h0Z"/><path class="cls-3" d="m178.34,72.9c-9.08,6.03-11.69,16.23-14.25,26.22-3.13,12.22-7.03,24.51-9.42,36.89-.87,4.53-.15,9.8,4.26,12.3s9.17.47,11.57-3.48,2.52-9,3.19-13.45c1.04-6.99,2.09-13.98,3.13-20.97,1.45-9.68,1.93-23.17,10.29-29.78,2.68-2.11,12.83-4.64,11.49,2.26-.67,3.43-7.03,5.22-9.63,6.79-8.57,5.17-10.69,13.52-9.63,23.06.67,6.05,1.87,11.65-1.63,17.07-3.04,4.71-6.39,8.8-6.7,14.67s2.09,11.44,4.6,16.65c3.18,6.6,6.2,13.15,8.48,20.13,4.41,13.54,6.74,27.64,5.99,41.89h10c-.03-6.41,6.34-11.56,8.72-17.25,3.04-7.27,2.34-15.08,2.3-22.76-.08-17.18,3.87-33.96,7.92-50.55s8.1-32.1,9.15-48.57c.91-14.22-4.88-28.25-20.43-30.52s-28.64,10.42-29.33,25.45c-.3,6.43,9.7,6.42,10,0,.33-7.19,5.62-14.02,12.83-15.48,8.29-1.68,15.56,3.78,16.82,12s-.61,17.06-2.06,25.07c-1.63,8.98-3.8,17.86-5.97,26.72-4.12,16.86-8.29,33.91-8.87,51.34-.28,8.56,1.69,18.17-2.83,25.93-3.58,6.14-8.29,11.05-8.25,18.61.03,6.47,9.66,6.4,10,0,.64-12.08-.88-24.19-3.84-35.9-2.92-11.53-7.79-21.96-12.73-32.71-2.47-5.37-3.6-10.14-.2-15.35,3.02-4.61,6.04-8.53,6.7-14.18,1.11-9.55-5.34-21.45,5.04-27.3,6.69-3.77,14.53-7.75,13.49-16.84-1.12-9.86-11.61-14.59-20.45-11.94-9.61,2.89-15.14,12.14-17.72,21.25-3.17,11.19-4.04,23.24-5.76,34.71-.57,3.8-.96,7.67-1.71,11.44-.12.61-.58,1.87-.55,2.39-.87,1.26-.62,1.42.73.48,1.24-.18,1.79-.94,1.63-2.27,1.55-3.18,2-7.81,2.88-11.22.8-3.12,1.6-6.24,2.4-9.35,1.66-6.47,3.25-12.96,4.98-19.41,1.52-5.66,3.26-12.01,8.42-15.43,5.34-3.55.33-12.21-5.05-8.63h0Z"/><path class="cls-3" d="m202.51,72.01c4.37-3.39,8.56,2.86,9.36,6.4,1.16,5.11-.45,10.47-1.65,15.42-2.79,11.54-5.24,23.15-7.26,34.85-3.95,22.89-6.36,46.03-7.28,69.24l9.82-1.33c-2.62-8.87-5.25-17.74-7.87-26.61-2.46-8.33-6.05-17.04-6.82-25.74-.34-3.83-.04-8.13,2.11-11.45.55-.85,1.91-2.77,3.16-2.93,2.2-.28,1.33,1.33,1.04,3.12-1.44,8.78-3.67,17.5-5.49,26.21l9.82,1.33c-.11-9.42-.22-18.85-.34-28.27-.06-5.44-8.72-7.04-9.82-1.33-1.14,5.89-2.27,11.79-3.41,17.68-1.21,6.26,8.26,8.99,9.64,2.66.98-4.46,1.95-8.92,2.93-13.38,1.37-6.25-8.06-8.93-9.64-2.66-.53,2.11-1.06,4.22-1.6,6.33-1.57,6.24,8.07,8.9,9.64,2.66.53-2.11,1.06-4.22,1.6-6.33l-9.64-2.66c-.98,4.46-1.95,8.92-2.93,13.38l9.64,2.66c1.14-5.89,2.27-11.79,3.41-17.68l-9.82-1.33c.11,9.42.22,18.85.34,28.27.07,5.47,8.63,7.01,9.82,1.33,1.37-6.55,2.74-13.1,4.12-19.65,1.04-4.99,3.17-10.94,1.38-15.99-3.69-10.38-16.61-6.71-21.6.24-6.83,9.51-4.4,21.65-1.36,32.04,3.98,13.6,8.03,27.18,12.05,40.77,1.62,5.47,9.6,4.31,9.82-1.33,1.16-29.39,4.76-58.61,10.95-87.37,2.51-11.68,8.48-25.65,4.04-37.5-3.97-10.61-15.98-15.29-25.23-8.11-5.08,3.94,2.04,10.97,7.07,7.07h0Z"/><path class="cls-3" d="m204.53,166.94c-1.56-10.62-3.11-21.23-4.67-31.85-.8-5.47-1.67-10.93-2.41-16.41-.59-4.41-1.44-9.78,1.57-13.51,2.31-2.87,5.98-4.57,8.84-6.84,3.02-2.41,5.36-5.39,6.73-9.03,2.83-7.5,1.1-15.34-3.71-21.53-3.2-4.12-9.59.4-8.36,4.86,4.37,15.84,2.87,32.61-4.51,47.34l9.32,2.52c.58-5.79,1.17-11.57,1.75-17.36.61-6.09-7.89-6.08-9.82-1.33-1.25,3.08-2.5,6.15-3.75,9.23l9.64,2.66c.45-2.67.9-5.35,1.35-8.02,1.08-6.4-7.25-8.64-9.64-2.66l-1.62,4.06h9.64l-.44-2.49c-.72-4.09-7.39-5-9.14-1.19-.29.64-.59,1.28-.88,1.91-2.67,5.81,5.95,10.89,8.63,5.05.29-.64.59-1.28.88-1.91l-9.14-1.19.44,2.49c.95,5.41,8.03,4.03,9.64,0l1.62-4.06-9.64-2.66c-.45,2.67-.9,5.35-1.35,8.02-1.08,6.41,7.22,8.61,9.64,2.66,1.25-3.08,2.5-6.15,3.75-9.23l-9.82-1.33c-.58,5.79-1.17,11.57-1.75,17.36-.5,4.93,7.17,6.82,9.32,2.52,8.58-17.13,10.62-36.54,5.51-55.04-2.79,1.62-5.57,3.24-8.36,4.86,2.27,2.92,2.76,7.07,1.6,10.53-1.29,3.84-4.52,5.76-7.66,7.96-6.47,4.54-10.44,9.8-10.79,17.96-.39,9.02,2.11,18.55,3.41,27.43,1.51,10.29,3.02,20.59,4.53,30.88.93,6.34,10.57,3.65,9.64-2.66h0Z"/><path class="cls-3" d="m172.02,54.48c-2.12,3.44-6.18,7.87-6.13,12.12.06,4.67,4.69,7.27,8.84,5.76,3.66-1.33,5.9-5.43,7.05-8.92.61-1.86.91-3.92.89-5.88-.01-1.03-.15-2.04-.3-3.06l-.21-1.17c.12-1.13-.2-1.32-.96-.58,6.29-1.36,3.63-11-2.66-9.64-4.3.93-6.68,4.99-6.57,9.21.05,1.95.79,3.85.7,5.81-.05,1.02-.28,2.11-.67,3.06l-.54,1.02c-1.32,1.46-.57,1.77,2.24.92l2.3,2.99c-.31,1.58-.08,1.53.69-.16l1.19-1.93,2.77-4.51c3.38-5.5-5.26-10.53-8.63-5.05h0Z"/><path class="cls-1" d="m223.33,222.79c-11.92-19.4-35.83,19.82-41.11,28.37-5.23,8.49-10.06,18.39-8.24,28.65,1.49,8.35,7.37,15.86,15.87,17.67,3.75.8,8.54-3.59,5.65-7.34-6.06-7.85-7.52-17.53-3.34-26.65,2.02-4.41,4.9-8.43,7.82-12.28,2.73-3.6,5.65-8.05,9.6-10.42,2.07-1.24,7.22-2.47,8.2.92,1.18,4.07-6.84,7.24-9.39,8.54-7.56,3.87-13.98,10.21-11.96,19.37.7,3.16,4.69,4.58,7.34,2.99,15.78-9.44,26.68-24.87,30.48-42.84,2.06-9.77,4.39-17.29,12.12-24,6.45-5.6,14.06-9.69,20.86-14.82,8.04-6.07,14.14-13.69,20-21.81s12.24-17.01,17.9-25.83c10.72-16.73,21.79-36.65,23.09-56.91.59-9.12-2.22-18.83-9.68-24.59-6.31-4.87-15.48-5.69-22.18-1.06-7.62,5.26-8.07,15.18-6.04,23.39,1.29,5.22,4.23,10.61,3.96,16.1-.17,3.51-4.27,10.71-7.72,5.69-2.78-4.05-.33-9.99.55-14.24.96-4.64,1.3-9.16.54-13.85-1.44-8.94-6.59-17.03-14.05-22.16s-17.02-7.13-25.67-5.13c-7.45,1.72-15.03,7.54-16,15.52-1.16,9.56,6.9,14.85,14.44,18.45,10.43,4.98,16.65,12.07,20.42,23.03s8.16,23.6,6.49,35.79c-1.5,10.97-7.03,20.77-15.24,28.1l8.54,3.54c-.37-13.82-.73-27.64-1.1-41.46-.14-5.38-8.84-7.11-9.82-1.33-1.66,9.77-4.51,19.31-9,28.17-1.76,3.48-4.01,8.67-8.12,9.85-5.53,1.59-4.48-4.66-3.56-7.95,2.77-9.92,6.21-19.69,9.31-29.51,2.45-7.74,8.07-18.43,4.76-26.59-2.8-6.92-11.9-9.84-17.16-3.8-2.47,2.83-3.11,6.7-3.87,10.24-1.16,5.38-2.32,10.76-3.48,16.14-2.18,10.13-4.37,20.25-6.55,30.38-2,9.29-4.45,18.91-3.64,28.49.43,5.15,2.06,9.79,3.57,14.69,1.14,3.73,2.57,8.99-.94,11.86s-7.8,3.12-9.86,7.69c-1.6,3.55-1.19,7.79,1.9,10.37,4.9,4.1,12.01-2.93,7.07-7.07.73.61-.4,1.14.9.21.82-.59,2.05-.95,2.92-1.38,1.56-.78,3.01-1.59,4.31-2.78,2.63-2.42,4.11-5.74,4.66-9.23,1.3-8.25-3.26-15.31-4.37-23.24-1.35-9.63,1.53-19.51,3.55-28.85,2.05-9.49,4.1-18.99,6.14-28.48,1.02-4.75,2.05-9.49,3.07-14.24.37-1.73.46-4.52,1.35-6.11.66-1.19.12-1.74,1.32-.92.76.52-.28,3.92-.43,4.5-2.44,9.64-6,19.13-8.99,28.61-2.44,7.72-6.78,16.6-6.38,24.86.35,7.09,5.86,12.46,13.01,12.38,9.38-.11,14.85-8.32,18.57-15.86,4.64-9.42,7.85-19.39,9.6-29.74l-9.82-1.33c.37,13.82.73,27.64,1.1,41.46.12,4.47,5.31,6.41,8.54,3.54,13-11.61,20.14-29.24,18.21-46.65-1.08-9.73-4.12-19.36-7.44-28.54-3.07-8.46-7.51-16.02-14.68-21.62-3.05-2.38-6.31-4.15-9.79-5.81-2.99-1.43-7.73-3.05-9.21-6.31-1.56-3.44,1.74-6.41,4.48-7.92,3.76-2.09,8.38-2.2,12.52-1.37,8.87,1.8,15.95,8.4,18.19,17.19,2.38,9.35-3.27,18.03-1.66,27.34,1.23,7.14,6.87,13.51,14.58,12.76,7.68-.75,13.21-8.22,13.87-15.53.45-5.03-.92-9.95-2.43-14.69-1.37-4.31-3.35-9.26-2.36-13.87.85-3.94,3.98-6.12,7.97-5.81,4.72.36,8.05,4.28,9.66,8.45,3.53,9.09-.27,20.05-3.37,28.75-3.24,9.09-7.66,17.72-12.58,26.01s-10.64,16.64-16.36,24.69-11.25,16.58-18.54,23.35c-12.65,11.75-31.06,17.74-38.04,34.81-3.98,9.72-4.13,20.22-9.31,29.6-4.75,8.6-11.67,15.62-20.09,20.66l7.34,2.99c-1.32-5.98,10.04-9.06,13.66-11.54,4.27-2.93,7.96-7.59,8.04-12.98.17-11.35-13.08-15.43-21.9-11.02-5.33,2.67-9.01,7.6-12.57,12.19-3.99,5.15-7.86,10.38-10.47,16.38-5.07,11.67-3.81,25.05,4.03,35.2,1.88-2.45,3.76-4.9,5.65-7.34-14.7-3.14-7.49-21.9-2.59-30.1,3.48-5.82,7.36-11.44,11.59-16.75,1.05-1.31,12.34-14.52,13.18-13.15,3.36,5.47,12.02.46,8.63-5.05h0Z"/><path class="cls-1" d="m219.52,223.39l-2.02,7.15,9.82,1.33c-.25-19.26,11.23-35.26,21.99-50.22,3.32-4.61-4.06-10.22-7.85-6.06-4.37,4.79-10.51,3.57-13.21-2.18-2.49-5.3-10.39-1.46-9.14,3.85,1.44,6.14,2.89,12.27,4.33,18.41,1.1,4.66,8.69,4.88,9.64,0,.47-2.42.95-4.84,1.42-7.25l-9.82-1.33c-.05,3.53-.1,7.07-.15,10.6-.1,6.64,9.18,6.16,10,0,.26-1.93.51-3.86.77-5.78.85-6.36-9.16-6.3-10,0-.26,1.93-.51,3.86-.77,5.78h10c.05-3.53.1-7.07.15-10.6.08-5.51-8.72-6.97-9.82-1.33-.47,2.42-.95,4.84-1.42,7.25h9.64c-1.44-6.14-2.89-12.27-4.33-18.41-3.05,1.28-6.09,2.57-9.14,3.85,5.38,11.46,20.47,13.46,28.92,4.2-2.62-2.02-5.24-4.04-7.85-6.06-11.87,16.49-23.64,34.14-23.36,55.27.07,5.62,8.27,6.81,9.82,1.33l2.02-7.15c1.75-6.2-7.89-8.85-9.64-2.66h0Z"/><path class="cls-1" d="m235.71,111.56c-2.57,11.44-5.15,22.88-7.72,34.32-1.41,6.27,8.23,8.94,9.64,2.66,2.57-11.44,5.15-22.88,7.72-34.32,1.41-6.27-8.23-8.94-9.64-2.66h0Z"/><path class="cls-1" d="m243.66,201.05c8.65-8.41,14.54-19.11,16.84-30.97h-9.64c2.13,5.57,3.16,11.09,3.08,17.06-.06,4.13,5.65,6.87,8.54,3.54,23.15-26.78,41.63-57.2,54.56-90.16,2.88-7.34,7.22-15.95,5.61-24.06-1.41-7.11-7.48-12.72-15-11.46-7.12,1.2-12,7.45-12.44,14.52-.56,8.95,4.92,16.07,10.37,22.53,2.78,3.29,8.76.64,8.54-3.54-.39-7.34-.77-14.68-1.16-22.02h-10c1.08,8.43.38,16.77-2.51,24.78-1.35,3.74-3.19,7.32-5.41,10.63-1.13,1.7-2.37,3.58-3.97,4.88-.07.06-4.35,2.67-3.85.95l-9.82-1.33c.57,6.59,1.15,13.19,1.72,19.78.5,5.7,7.8,6.69,9.82,1.33,1.23-3.26,2.45-6.52,3.68-9.77l-9.82-1.33c-.47,4.56-.93,9.11-1.4,13.67-.58,5.67,8.43,6.68,9.82,1.33,1.17-4.53,2.34-9.05,3.52-13.58,1.62-6.24-7.81-8.83-9.64-2.66-2.04,6.89-4.09,13.77-6.13,20.66l9.82,1.33c.28-10.51,3.06-20.46,8.25-29.6l-9.32-2.52-.03,2.99c-.06,6.44,9.94,6.44,10,0l.03-2.99c.05-4.94-6.87-6.84-9.32-2.52-6.06,10.67-9.3,22.38-9.62,34.65-.15,5.73,8.24,6.67,9.82,1.33,2.04-6.89,4.09-13.77,6.13-20.66l-9.64-2.66c-1.17,4.53-2.34,9.05-3.52,13.58l9.82,1.33c.47-4.56.93-9.11,1.4-13.67.61-5.99-7.98-6.21-9.82-1.33-1.23,3.26-2.45,6.52-3.68,9.77l9.82,1.33c-.57-6.59-1.15-13.19-1.72-19.78-.47-5.43-8.17-7.02-9.82-1.33-1.74,6,2.38,11.79,8.37,13.06,6.64,1.4,12.15-3.6,15.81-8.48,9.19-12.24,13.14-28.03,11.2-43.16-.79-6.18-10.35-6.59-10,0,.39,7.34.77,14.68,1.16,22.02l8.54-3.54c-3.53-4.18-10.2-11.67-6.76-17.62,1.25-2.16,4.05-3.58,5.91-1.39,2.03,2.39,1.07,6.14.32,8.82-3.41,12.21-9.08,24.17-14.68,35.5-11.27,22.8-25.41,44.09-42.04,63.33l8.54,3.54c.1-6.78-1.01-13.38-3.43-19.72-1.58-4.14-8.61-5.33-9.64,0-1.99,10.28-6.75,19.25-14.26,26.55-4.62,4.49,2.45,11.56,7.07,7.07h0Z"/><path class="cls-1" d="m263.1,55.2c-4.54-.51-8.73.65-12.81,2.58-3.56,1.69-8.89,4.23-10.57,8.07-4.41,10.06,12.66,12.36,18.61,14.19,4.29,1.31,7.7-3.64,5.65-7.34-1.54-2.77-3.07-5.54-4.61-8.31l-7.85,6.06c2.25,1.78,4.51,3.56,6.76,5.33,3.92,3.09,9.35.29,8.36-4.86-.56-2.93-1.13-5.87-1.69-8.8-2.45,1.88-4.9,3.76-7.34,5.65l7.41,5.25c4.59,3.25,8.56-2.83,6.84-6.84-2.91.67-3.91,2.06-2.98,4.15,1.03,5.12,8.22,4.38,9.64,0,.26-.81.53-1.62.79-2.44h-9.64c.6,3.98,1.19,7.96,1.79,11.93,2.79-1.62,5.57-3.24,8.36-4.86l-7.25-5.87c-3.95-3.2-9.25-.22-8.36,4.86l.69,3.95c2.45-1.88,4.9-3.76,7.34-5.65l-3.75-2.63c-3.69-2.59-8.42,1.68-7.34,5.65.76,2.79,1.52,5.59,2.28,8.38l8.36-4.86-3.45-4.15c-3.97-4.77-9.85,1.33-7.85,6.06,1.06,2.5,2.11,5,3.17,7.49,2.38,5.64,9.94,1.23,9.14-3.85l-.86-5.49c-3.05,1.28-6.09,2.57-9.14,3.85l4.24,8.05c2.33,4.43,9.39,2.33,9.32-2.52l-.1-6.81-9.82,1.33c1.32,3.37,2.64,6.75,3.97,10.12,1.91,4.87,10.08,4.75,9.82-1.33l-.35-8.41-9.82,1.33c.51,3,1.02,6,1.54,9,.99,5.82,9.52,4.01,9.82-1.33l.38-6.68c.37-6.53-9.3-6.26-10,0-.33,2.95-.66,5.91-.99,8.86h10l.11-1.54h-10l-.53,8.81c-.38,6.43,9.62,6.41,10,0l.53-8.81c.39-6.44-9.56-6.38-10,0l-.11,1.54c-.45,6.5,9.3,6.27,10,0,.33-2.95.66-5.91.99-8.86h-10l-.38,6.68,9.82-1.33c-.51-3-1.02-6-1.54-9-.95-5.57-10.06-4.25-9.82,1.33l.35,8.41,9.82-1.33c-1.32-3.37-2.64-6.75-3.97-10.12-1.94-4.94-9.91-4.71-9.82,1.33l.1,6.81,9.32-2.52-4.24-8.05c-2.84-5.39-9.96-1.36-9.14,3.85l.86,5.49c3.05-1.28,6.09-2.57,9.14-3.85l-3.17-7.49-7.85,6.06,3.45,4.15c3.31,3.98,9.59-.32,8.36-4.86l-2.28-8.38c-2.45,1.88-4.9,3.76-7.34,5.65,1.25.88,2.5,1.75,3.75,2.63,3.93,2.76,8.02-1.78,7.34-5.65l-.69-3.95-8.36,4.86c2.42,1.96,4.83,3.91,7.25,5.87,4.03,3.26,9.11.18,8.36-4.86-.6-3.98-1.19-7.96-1.79-11.93-.79-5.24-8.27-4.24-9.64,0-.26.81-.53,1.62-.79,2.44h9.64c-1.11-5.49-5.28-11.17-11.63-9.05-5.72,1.91-5.64,7.97-3.66,12.6,2.28-2.28,4.56-4.56,6.84-6.84-2.47-1.75-4.94-3.5-7.41-5.25-3.88-2.75-8.09,1.78-7.34,5.65.56,2.93,1.13,5.87,1.69,8.8l8.36-4.86c-2.25-1.78-4.51-3.56-6.76-5.33-4.25-3.35-10.8.75-7.85,6.06,1.54,2.77,3.07,5.54,4.61,8.31,1.88-2.45,3.76-4.9,5.65-7.34-2.41-.74-4.83-1.48-7.24-2.22-.84-.26-5.06-1.08-5.38-1.69l.5,3.85c.18-.95,4.68-3.05,5.7-3.56,2.78-1.38,5.43-1.93,8.52-1.58,6.39.72,6.33-9.29,0-10h0Z"/><path class="cls-1" d="m246,95.88c4.7,7.78,7.55,16.04,8.83,25.02.9,6.35,10.53,3.65,9.64-2.66-1.38-9.76-4.74-18.98-9.83-27.41-3.32-5.5-11.97-.48-8.63,5.05h0Z"/><path class="cls-1" d="m265.09,73.58l-3.86-.17c-2.1-.09-4.35,1.61-4.82,3.67-.54,2.35.44,4.25,2.3,5.65,2.09,1.58,4.19,3.16,6.28,4.74,1.28-3.05,2.57-6.09,3.85-9.14-1.69-.64-3.39-1.29-5.08-1.93-2.32-.88-5.01.79-5.9,2.89-.94,2.23-.14,5.03,2.05,6.24,1.33.74,2.65,1.47,3.98,2.21,2.29,1.27,5.56.63,6.84-1.79s.65-5.48-1.79-6.84c-1.33-.74-2.65-1.47-3.98-2.21l-3.85,9.14c1.69.64,3.39,1.29,5.08,1.93,2.32.88,5.01-.79,5.9-2.89,1.04-2.47-.03-4.72-2.05-6.24s-4.19-3.16-6.28-4.74l-2.52,9.32,3.86.17c2.62.11,5.12-2.38,5-5-.13-2.8-2.2-4.88-5-5h0Z"/><path class="cls-1" d="m310.1,78.59l1.04,6.63,9.14-3.85c-.36-.78-.72-1.57-1.08-2.35-.81-1.77-3.2-2.65-4.98-2.39-2.05.31-3.47,1.64-4.16,3.58-.21.6-.43,1.21-.64,1.81l8.36-2.21c-.78-.83-1.55-1.65-2.33-2.48-1.69-1.8-4.69-1.89-6.57-.39-2.01,1.6-2.45,4.17-1.29,6.45.87,1.7,1.74,3.4,2.61,5.1l8.63-5.05c-.32-.45-.64-.9-.97-1.35-1.57-2.19-4.36-3.25-6.84-1.79-2.17,1.27-3.37,4.63-1.79,6.84.32.45.64.9.97,1.35,1.57,2.19,4.36,3.25,6.84,1.79s3.03-4.43,1.79-6.84c-.87-1.7-1.74-3.4-2.61-5.1-2.62,2.02-5.24,4.04-7.85,6.06.78.83,1.55,1.65,2.33,2.48,2.74,2.91,7.16,1.18,8.36-2.21.21-.6.43-1.21.64-1.81l-9.14,1.19c.36.78.72,1.57,1.08,2.35,1.02,2.23,4.17,2.96,6.24,2.05,2.44-1.07,3.29-3.36,2.89-5.9l-1.04-6.63c-.42-2.67-3.76-4.15-6.15-3.49-2.85.78-3.91,3.47-3.49,6.15h0Z"/><path class="cls-1" d="m253.61,107.59l.68.7c.45.49.99.83,1.61,1.03.6.31,1.24.46,1.93.43.69.03,1.33-.12,1.93-.43.62-.2,1.16-.55,1.61-1.03l.78-1.01c.45-.78.68-1.62.68-2.52l-.18-1.33c-.24-.85-.67-1.58-1.29-2.21l-.68-.7c-.45-.49-.99-.83-1.61-1.03-.6-.31-1.24-.46-1.93-.43-.69-.03-1.33.12-1.93.43-.62.2-1.16.55-1.61,1.03l-.78,1.01c-.45.78-.68,1.62-.68,2.52l.18,1.33c.24.85.67,1.58,1.29,2.21h0Z"/><path class="cls-4" d="m37.31,194.68c-3.05,5.36-4.43,13.25,2.58,16.29,5.7,2.47,11.18-2.3,10.63-8.19-.62-6.62-8.7-8.42-8.41-15.18.3-7.29,6.76-11.61,13.07-13.63,6.63-2.12,15.14-4.03,22.01-2.24,2.85.74,6.1,2.52,7.07,5.52,1.38,4.25-2.03,6.04-5.75,5.51-6.34-.91-11.59-3.98-18.14-1.92-5.58,1.76-8.75,6.81-8.09,12.59.43,3.74,2.04,7.18,2.27,10.96.21,3.47-.23,6.87-1.21,10.19-2.07,6.99-6.58,12.9-12.81,16.68l7.52,4.32c.26-3.14,5.21-4.67,7.59-5.71,3.35-1.46,6.57-3.08,8.96-5.93,2.12-2.52,3.21-5.64,3.76-8.85.64-3.74.34-8.31,2.82-11.43,5.33-6.7,14.96-3.53,20.06,1.52,5.84,5.77,8.08,14.08,9.95,21.82,2.01,8.3,4.12,16.31,9.4,23.2s11.53,11.89,16.19,18.78c5.18,7.64,6.63,15,5.69,24.1-.81,7.87-1.2,15.36,1.47,22.96,5.19,14.77,17.94,26.54,33.45,29.44,6.27,1.18,8.86-7.67,2.66-9.64-12.7-4.04-23.2-13.75-28.33-26.07-6.1-14.66-1.59-30.33-2.12-45.58-.57-16.53-9.56-29.72-17.48-43.67-8.7-15.33-17.4-30.65-26.1-45.98-2.82-4.97-10.54-1.61-9.14,3.85,1.01,3.91.64,7.45-1.25,11.03-1.02,1.92-.87,4.5.78,6.06,8.59,8.09,13.61,18.82,18.93,29.17,2.99,5.81,5.99,11.63,8.98,17.44s4.84,11.19,10.14,14.87c5.3,3.68,10.3-4.99,5.05-8.63-2.2-1.53-3.09-4.56-4.31-6.93-1.5-2.91-2.99-5.81-4.49-8.72-2.99-5.81-5.98-11.63-8.98-17.44-4.99-9.68-10.23-19.28-18.25-26.83l.78,6.06c3.14-5.94,3.93-12.22,2.26-18.73-3.05,1.28-6.09,2.57-9.14,3.85,9.34,16.46,18.69,32.92,28.03,49.38,4.16,7.33,9.23,14.73,12.01,22.75s2.35,16.6,1.77,24.96c-1.05,15.28-1.35,29.77,6.55,43.45,6.99,12.1,18.36,21.14,31.64,25.36l2.66-9.64c-14.89-2.79-27.51-15.77-28.31-31.25-.51-9.71,2.59-18.98-.38-28.59-2.53-8.17-7.74-15.22-13.44-21.48-6.72-7.38-12.67-13.39-15.39-23.33-2.34-8.56-3.86-17.34-8.28-25.17-7.53-13.33-26.27-22.86-39.19-10.43-3.08,2.97-4.84,6.77-5.58,10.95-.73,4.14-.21,9.47-3.95,12.24-3.54,2.62-8.1,3.38-11.64,6.11s-5.48,6.19-5.85,10.68c-.32,3.83,4.47,6.17,7.52,4.32,11.07-6.72,18.04-18.49,18.94-31.39.22-3.18-.04-6.39-.64-9.51-.51-2.68-3.51-7.82.18-8.79,2.79-.74,5.81.59,8.45,1.33,3.76,1.06,7.81,2,11.7,1.02,14.52-3.66,11.95-22.47.75-28.44-6.95-3.7-14.78-3.18-22.31-2.03-7.14,1.09-14.52,2.91-20.45,7.22s-9.63,10.45-10.04,17.63c-.2,3.42.46,6.93,2.13,9.94.85,1.54,1.97,2.89,3.25,4.09.5.48,1.13,1.14,1.73,1.48.93,1.5,2.1,1.45,3.48-.14,1.64-.25,2.71-1.12,3.19-2.6,3.19-5.6-5.45-10.65-8.63-5.05h0Z"/><path class="cls-4" d="m73.51,188.78c-5.6-4.02-14.23.85-13.42,7.79.3,2.59,2.08,5.13,5,5,2.45-.11,5.33-2.22,5-5-.01-.11.02-.61-.05-.67-.13.71-.15.87-.05.49.08-.26.05-.22-.08.12-.4.87.43-.52-.14.23-.23.27-.25.31-.06.12.27-.26.15-.17-.35.26-.28.16-.88.22-.26.12-.31.05-.97,0-.32.07l-.66-.1c.42.13.44.11.05-.04-.72-.37.21.19.28.24,2.13,1.53,5.66.44,6.84-1.79,1.37-2.58.48-5.21-1.79-6.84h0Z"/><path class="cls-4" d="m76.58,171.06c10.03-.91,17.97,12.74,23.6,19.35,7.62,8.94,16,17.63,22.53,27.42,12.54,18.8,10.65,41.62,8.61,63.06-.61,6.4,9.39,6.36,10,0,2.34-24.62,3.33-49.91-11.91-70.88-7.76-10.67-16.85-20.44-25.4-30.47-7.06-8.28-15.13-19.58-27.43-18.47-6.36.58-6.42,10.58,0,10h0Z"/><path class="cls-4" d="m111.33,212.07c6.12,8.52,11.14,17.67,14.81,27.51,2.23,5.98,11.9,3.39,9.64-2.66-3.98-10.66-9.18-20.65-15.82-29.89-3.72-5.18-12.4-.19-8.63,5.05h0Z"/></svg>