<?xml version="1.0" encoding="UTF-8"?><svg id="Layer_1" xmlns="http://www.w3.org/2000/svg" viewBox="0 0 700 600"><defs><style>.cls-1{fill:#fad5e1;}.cls-2{fill:#fff;}.cls-3{fill:#746baf;}.cls-4{fill:#6c5ca7;}.cls-5{fill:#a77eb7;}.cls-6{fill:#d091bf;}</style></defs><path class="cls-4" d="m358.58,27c-85.33-5.4-135.8,59.33-130.04,121.02,5.75,61.69,45.4,171.25,123.61,178.82.19.02.4-1.62.58-.72.29-100.44,3.14-199.58,6.38-299.82-.19-.9-.32.72-.53.71Z"/><path class="cls-3" d="m480.86,147.06c7.78-58.25-38.78-121.98-121.56-120.02-3.56,99.02-6.41,198.15-6.38,299.82,68.87-7.48,120.15-121.55,127.94-179.8Z"/><path class="cls-4" d="m94.98,67.31c1.67-2.43,0,0,0,0,8.17-.83,17.63,1.96,17.04,18.22-4.29,116.93,80.99,120.81,168.57,140.72,12.18,2.77,15.54,11.84,12.73,20.94,2.1.22,0,0,0,0-2.81,9.11-2.82,16.26-19.21,13.36-117.88-20.8-185.16-39.06-196.35-175.8-1.56-19.02,9.05-16.62,17.22-17.45Z"/><path class="cls-4" d="m39.33,302.18c.06-5.16,0,0,0,0,3.07-8.23,9.91-16.32,25.11-7.43,105.79,61.91,111.38,122.16,192.95-29.98,11.71-21.85,17.45-10.55,24.81-7.15,4.78-.6,0,0,0,0,7.36,3.4,18.95,4.6,6.69,25.78-85.33,147.48-120.64,127.14-242.63,43.2-17.52-12.05-10.01-16.2-6.94-24.43Z"/><path class="cls-4" d="m152.02,459.16c-2.51-1.08,0,0,0,0-2.86-10.58-2.08-22.35,13.43-26.47,86.03-22.84,156.59-4.38,132.97-125.22-4.26-21.79,8.19-21,17.7-22.83,1-3.42,0,0,0,0,9.51-1.83,17.19-7.66,21.13,15.48,21.83,128.27-55.67,159.38-163.98,173.22-19.54,2.5-18.4-3.59-21.26-14.17Z"/><path class="cls-3" d="m604.44,510.53c2.54-.07,0,0,0,0-1.68,11.96-1.93,19.69-22.8,19.15-141.72-3.64-195.33-78.19-219.95-215.85-3.63-20.28,4.56-22.29,14.95-24.77,1.8-3.03,0,0,0,0,10.39-2.49,22.57-3.31,25.87,16.47,22.42,134.3,57.81,168.47,183.06,180.61,18.45,1.79,20.54,12.44,18.86,24.4Z"/><path class="cls-3" d="m680.39,281.17c1.01-3.16.55-2.19,0,0,10.49,12.42,18.74,10.16,2.28,30.47-105.74,130.46-225,148.97-271.98-40.61-7.32-29.52.29-18.71,17.34-24.33.83-3.12.41-1.94,0,0,17.05-5.62,25.95-10.62,29.43,15.56,22.31,168.15,115.82,111.37,189.27,15.6,11.44-14.91,23.19-9.11,33.67,3.31Z"/><path class="cls-3" d="m653.02,69.06c1.7-1.83,0,0,0,0,7.9,9.05,13.21,17.52-1.73,31.89-82.85,79.67-40.41,132.36-184.39,143.08-25.96,1.93-21.18-9.49-22.97-21.02-3.65-2.05,0,0,0,0-1.79-11.53-.49-24.2,21.3-26.05,120.82-10.23,74.82-49.95,157.01-129.74,14.82-14.39,22.88-7.23,30.78,1.83Z"/><ellipse class="cls-6" cx="306.06" cy="192.25" rx="19.54" ry="7.75"/><ellipse class="cls-6" cx="405.56" cy="192.37" rx="19.54" ry="7.75"/><path class="cls-5" d="m481.88,242.67l-13.59.67c-2.5.12-4.43,2.32-4.31,4.91h0c.12,2.59,2.25,4.59,4.75,4.47l13.59-.67c2.5-.12,4.43-2.32,4.31-4.91h0c-.12-2.59-2.25-4.59-4.75-4.47Z"/><path class="cls-5" d="m507.29,238.62l-13.48,1.94c-2.48.36-4.21,2.73-3.87,5.3h0c.34,2.57,2.64,4.36,5.12,4l13.48-1.94c2.48-.36,4.21-2.73,3.87-5.3h0c-.34-2.57-2.64-4.36-5.12-4Z"/><path class="cls-5" d="m533.35,231.47l-13.17,3.53c-2.42.65-3.88,3.21-3.25,5.72h0c.63,2.51,3.1,4.02,5.53,3.37l13.17-3.53c2.42-.65,3.88-3.21,3.25-5.72h0c-.63-2.51-3.1-4.02-5.53-3.37Z"/><path class="cls-5" d="m558.33,220.39l-12.11,6.43c-2.23,1.18-3.11,4.01-1.97,6.32h0c1.14,2.31,3.88,3.22,6.11,2.04l12.11-6.43c2.23-1.18,3.11-4.01,1.97-6.32h0c-1.14-2.31-3.88-3.22-6.11-2.04Z"/><path class="cls-5" d="m578.82,202.06l-9.62,9.96c-1.77,1.83-1.77,4.81,0,6.64h0c1.77,1.83,4.64,1.83,6.41,0l9.62-9.96c1.77-1.83,1.77-4.81,0-6.64h0c-1.77-1.83-4.64-1.83-6.41,0Z"/><path class="cls-5" d="m593.92,178.59l-7.24,11.93c-1.33,2.2-.69,5.09,1.43,6.47h0c2.12,1.38,4.92.72,6.25-1.48l7.24-11.93c1.33-2.2.69-5.09-1.43-6.47h0c-2.12-1.38-4.92-.72-6.25,1.48Z"/><path class="cls-5" d="m608.36,153.04l-6.8,12.2c-1.25,2.25-.51,5.12,1.66,6.41h0c2.17,1.3,4.94.53,6.2-1.72l6.8-12.2c1.25-2.25.51-5.12-1.66-6.41h0c-2.17-1.3-4.94-.53-6.2,1.72Z"/><path class="cls-5" d="m623.99,130.91l-7.96,11.42c-1.47,2.1-1.01,5.04,1.02,6.56h0c2.03,1.52,4.87,1.04,6.33-1.06l7.96-11.42c1.47-2.1,1.01-5.04-1.02-6.56h0c-2.03-1.52-4.87-1.04-6.33,1.06Z"/><path class="cls-5" d="m640.59,111.15l-9.02,10.54c-1.66,1.94-1.49,4.91.39,6.63h0c1.87,1.72,4.74,1.54,6.4-.4l9.02-10.54c1.66-1.94,1.49-4.91-.39-6.63h0c-1.87-1.72-4.74-1.54-6.4.4Z"/><path class="cls-5" d="m658,92.91l-9.62,9.96c-1.77,1.83-1.77,4.81,0,6.64h0c1.77,1.83,4.64,1.83,6.41,0l9.62-9.96c1.77-1.83,1.77-4.81,0-6.64h0c-1.77-1.83-4.64-1.83-6.41,0Z"/><path class="cls-5" d="m424.17,311.32l-5.4-12.93c-.99-2.38-3.66-3.48-5.96-2.45h0c-2.3,1.03-3.36,3.79-2.37,6.17l5.4,12.93c.99,2.38,3.66,3.48,5.96,2.45h0c2.3-1.03,3.36-3.79,2.37-6.17Z"/><path class="cls-5" d="m433.84,336.35l-5.98-12.65c-1.1-2.33-3.82-3.29-6.07-2.15h0c-2.25,1.14-3.18,3.95-2.08,6.28l5.98,12.65c1.1,2.33,3.82,3.29,6.07,2.15h0c2.25-1.14,3.18-3.95,2.08-6.28Z"/><path class="cls-5" d="m446.71,360.85l-6.8-12.2c-1.25-2.25-4.03-3.02-6.2-1.72h0c-2.17,1.3-2.91,4.17-1.66,6.41l6.8,12.2c1.25,2.25,4.03,3.02,6.2,1.72h0c2.17-1.3,2.91-4.17,1.66-6.41Z"/><path class="cls-5" d="m464.73,381.76l-9.09-10.48c-1.67-1.93-4.54-2.09-6.4-.36h0c-1.86,1.73-2.02,4.7-.34,6.63l9.09,10.48c1.67,1.93,4.54,2.09,6.4.36h0c1.86-1.73,2.02-4.7.34-6.63Z"/><path class="cls-5" d="m368.38,345.83l-2.1-13.92c-.39-2.56-2.71-4.32-5.18-3.91h0c-2.47.4-4.17,2.8-3.78,5.36l2.1,13.92c.39,2.56,2.71,4.32,5.18,3.91h0c2.47-.4,4.17-2.8,3.78-5.36Z"/><path class="cls-5" d="m586.47,396.23l-12.64,5.22c-2.33.96-3.46,3.69-2.53,6.1h0c.93,2.41,3.57,3.58,5.89,2.62l12.64-5.22c2.33-.96,3.46-3.69,2.53-6.1h0c-.93-2.41-3.57-3.58-5.89-2.62Z"/><path class="cls-5" d="m562.05,405.15l-13.15,3.64c-2.42.67-3.86,3.24-3.21,5.75h0c.65,2.51,3.13,3.99,5.55,3.32l13.15-3.64c2.42-.67,3.86-3.24,3.21-5.75h0c-.65-2.51-3.13-3.99-5.55-3.32Z"/><rect class="cls-5" x="517.1" y="410.51" width="22.68" height="9.39" rx="3.43" ry="3.43"/><path class="cls-5" d="m508.35,408.28l-12.91-4.46c-2.38-.82-4.94.51-5.74,2.97h0c-.79,2.46.49,5.12,2.87,5.94l12.91,4.46c2.38.82,4.94-.51,5.74-2.97h0c.79-2.46-.49-5.12-2.87-5.94Z"/><path class="cls-5" d="m484.22,398.61l-11.07-8.19c-2.04-1.51-4.87-1.02-6.33,1.09h0c-1.46,2.11-.98,5.04,1.05,6.55l11.07,8.19c2.04,1.51,4.87,1.02,6.33-1.09h0c1.46-2.11.98-5.04-1.05-6.55Z"/><path class="cls-5" d="m600.61,398.45l11.78-7.04c2.17-1.3,2.91-4.17,1.66-6.41h0c-1.25-2.25-4.03-3.02-6.2-1.72l-11.78,7.04c-2.17,1.3-2.91,4.17-1.66,6.41h0c1.25,2.25,4.03,3.02,6.2,1.72Z"/><path class="cls-5" d="m628.26,367.53l-10.76,8.62c-1.98,1.59-2.34,4.54-.81,6.59h0c1.53,2.05,4.38,2.43,6.36.84l10.76-8.62c1.98-1.59,2.34-4.54.81-6.59h0c-1.53-2.05-4.38-2.43-6.36-.84Z"/><path class="cls-5" d="m647.08,350.63l-10.05,9.49c-1.85,1.75-1.98,4.72-.29,6.63h0c1.69,1.92,4.56,2.05,6.41.3l10.05-9.49c1.85-1.75,1.98-4.72.29-6.63h0c-1.69-1.92-4.56-2.05-6.41-.3Z"/><path class="cls-5" d="m664.78,331.78l-9.25,10.33c-1.7,1.9-1.59,4.87.24,6.64h0c1.84,1.76,4.71,1.65,6.41-.25l9.25-10.33c1.7-1.9,1.59-4.87-.24-6.64h0c-1.84-1.76-4.71-1.65-6.41.25Z"/><path class="cls-5" d="m682.26,311.62l-8.61,10.91c-1.58,2.01-1.3,4.97.64,6.61h0c1.94,1.64,4.8,1.34,6.38-.67l8.61-10.91c1.58-2.01,1.3-4.97-.64-6.61h0c-1.94-1.64-4.8-1.34-6.38.67Z"/><path class="cls-5" d="m377.13,372.19l-3.51-13.61c-.65-2.51-3.13-3.99-5.55-3.32h0c-2.42.67-3.86,3.24-3.21,5.75l3.51,13.61c.65,2.51,3.13,3.99,5.55,3.32h0c2.42-.67,3.86-3.24,3.21-5.75Z"/><path class="cls-5" d="m384.67,398.68l-4.87-13.15c-.9-2.42-3.52-3.63-5.86-2.7h0c-2.34.93-3.51,3.64-2.61,6.07l4.87,13.15c.9,2.42,3.52,3.63,5.86,2.7h0c2.34-.93,3.51-3.64,2.61-6.07Z"/><path class="cls-5" d="m395.54,423.79l-5.96-12.66c-1.1-2.33-3.81-3.3-6.06-2.17h0c-2.25,1.14-3.19,3.95-2.09,6.28l5.96,12.66c1.1,2.33,3.81,3.3,6.06,2.17h0c2.25-1.14,3.19-3.95,2.09-6.28Z"/><path class="cls-5" d="m409.5,447.8l-7.52-11.74c-1.38-2.16-4.2-2.75-6.29-1.32h0c-2.09,1.43-2.66,4.35-1.27,6.51l7.52,11.74c1.38,2.16,4.2,2.75,6.29,1.32h0c2.09-1.43,2.66-4.35,1.27-6.51Z"/><path class="cls-5" d="m426.89,470.58l-9.08-10.49c-1.67-1.93-4.54-2.09-6.4-.36h0c-1.87,1.73-2.02,4.7-.35,6.63l9.08,10.49c1.67,1.93,4.54,2.09,6.4.36h0c1.87-1.73,2.02-4.7.35-6.63Z"/><path class="cls-5" d="m446.87,488.44l-10.56-8.88c-1.94-1.64-4.8-1.33-6.38.68h0c-1.58,2.01-1.28,4.97.66,6.61l10.56,8.88c1.94,1.64,4.8,1.33,6.38-.68h0c1.58-2.01,1.28-4.97-.66-6.61Z"/><path class="cls-5" d="m468.87,503.62l-11.78-7.04c-2.17-1.3-4.94-.53-6.2,1.72h0c-1.25,2.25-.51,5.12,1.66,6.41l11.78,7.04c2.17,1.3,4.94.53,6.2-1.72h0c1.25-2.25.51-5.12-1.66-6.41Z"/><path class="cls-5" d="m493.19,514.67l-12.6-5.32c-2.32-.98-4.97.17-5.91,2.57h0c-.95,2.4.17,5.14,2.49,6.12l12.6,5.32c2.32.98,4.97-.17,5.91-2.57h0c.95-2.4-.17-5.14-2.49-6.12Z"/><path class="cls-5" d="m517.86,522.04l-13.13-3.69c-2.42-.68-4.91.8-5.56,3.3h0c-.66,2.5.77,5.08,3.19,5.76l13.13,3.69c2.42.68,4.91-.8,5.56-3.3h0c.66-2.5-.77-5.08-3.19-5.76Z"/><path class="cls-5" d="m543.69,526.09l-13.46-2.04c-2.48-.38-4.78,1.4-5.15,3.96h0c-.36,2.57,1.35,4.95,3.83,5.33l13.46,2.04c2.48.38,4.78-1.4,5.15-3.96h0c.36-2.57-1.35-4.95-3.83-5.33Z"/><path class="cls-5" d="m569.63,528.64l-13.58-.93c-2.5-.17-4.66,1.79-4.82,4.38h0c-.16,2.59,1.73,4.82,4.23,4.99l13.58.93c2.5.17,4.66-1.79,4.82-4.38h0c.16-2.59-1.73-4.82-4.23-4.99Z"/><rect class="cls-5" x="333.74" y="335.06" width="23.48" height="9.07" rx="3.43" ry="3.43" transform="translate(685.08 -5.89) rotate(90)"/><path class="cls-5" d="m346.35,374.38l2.47-13.85c.45-2.55-1.17-5-3.64-5.47h0c-2.46-.47-4.83,1.22-5.28,3.77l-2.47,13.85c-.45,2.55,1.17,5,3.64,5.47h0c2.46.47,4.83-1.22,5.28-3.77Z"/><path class="cls-5" d="m337.3,401.4l4.81-13.18c.89-2.43-.29-5.14-2.64-6.05h0c-2.34-.92-4.96.3-5.85,2.73l-4.81,13.18c-.89,2.43.29,5.14,2.64,6.05h0c2.34.92,4.96-.3,5.85-2.73Z"/><path class="cls-5" d="m320.43,426.19l8.44-11.05c1.55-2.03,1.22-4.99-.74-6.6h0c-1.96-1.61-4.82-1.26-6.37.77l-8.44,11.05c-1.55,2.03-1.22,4.99.74,6.6h0c1.96,1.61,4.82,1.26,6.37-.77Z"/><path class="cls-5" d="m298.37,445.57l11.14-8.08c2.05-1.49,2.55-4.42,1.11-6.54h0c-1.44-2.12-4.27-2.64-6.32-1.15l-11.14,8.08c-2.05,1.49-2.55,4.42-1.11,6.54h0c1.44,2.12,4.27,2.64,6.32,1.15Z"/><path class="cls-5" d="m271.66,459.26l12.56-5.42c2.31-1,3.41-3.75,2.44-6.14h0c-.96-2.39-3.62-3.53-5.93-2.53l-12.56,5.42c-2.31,1-3.41,3.75-2.44,6.14h0c.96,2.39,3.62,3.53,5.93,2.53Z"/><path class="cls-5" d="m245.31,468.59l12.95-4.33c2.38-.8,3.69-3.45,2.92-5.91h0c-.77-2.47-3.33-3.82-5.71-3.02l-12.95,4.33c-2.38.8-3.69,3.45-2.92,5.91h0c.77,2.47,3.33,3.82,5.71,3.02Z"/><path class="cls-5" d="m218.55,475.15l13.36-2.68c2.46-.49,4.07-2.96,3.59-5.5h0c-.48-2.55-2.86-4.21-5.31-3.72l-13.36,2.68c-2.46.49-4.07,2.96-3.59,5.5h0c.48,2.55,2.86,4.21,5.31,3.72Z"/><path class="cls-5" d="m192.58,479.62l13.44-2.17c2.47-.4,4.17-2.8,3.78-5.36h0c-.39-2.56-2.71-4.32-5.18-3.91l-13.44,2.17c-2.47.4-4.17,2.8-3.78,5.36h0c.39,2.56,2.71,4.32,5.18,3.91Z"/><path class="cls-5" d="m280.98,312.36l7.91-11.46c1.46-2.11.98-5.04-1.05-6.55h0c-2.04-1.51-4.87-1.02-6.33,1.09l-7.91,11.46c-1.46,2.11-.98,5.04,1.05,6.55h0c2.04,1.51,4.87,1.02,6.33-1.09Z"/><path class="cls-5" d="m266.32,336.32l7.91-11.46c1.46-2.11.98-5.04-1.05-6.55h0c-2.04-1.51-4.87-1.02-6.33,1.09l-7.91,11.46c-1.46,2.11-.98,5.04,1.05,6.55h0c2.04,1.51,4.87,1.02,6.33-1.09Z"/><path class="cls-5" d="m247.04,360.11l9.12-10.45c1.68-1.92,1.53-4.89-.33-6.63h0c-1.86-1.74-4.73-1.59-6.41.34l-9.12,10.45c-1.68,1.92-1.53,4.89.33,6.63h0c1.86,1.74,4.73,1.59,6.41-.34Z"/><path class="cls-5" d="m228.07,380.75l10.1-9.44c1.86-1.74,2.01-4.71.33-6.63h0c-1.68-1.93-4.55-2.08-6.41-.34l-10.1,9.44c-1.86,1.74-2.01,4.71-.33,6.63h0c1.68,1.93,4.55,2.08,6.41.34Z"/><path class="cls-5" d="m203.29,394.94l12.43-5.72c2.29-1.05,3.32-3.83,2.3-6.2h0c-1.02-2.37-3.7-3.44-5.99-2.38l-12.43,5.72c-2.29,1.05-3.32,3.83-2.3,6.2h0c1.02,2.37,3.7,3.44,5.99,2.38Z"/><rect class="cls-5" x="164.66" y="390.95" width="22.68" height="9.39" rx="3.43" ry="3.43"/><path class="cls-5" d="m149.11,387.23l-12.73-4.97c-2.34-.91-4.96.31-5.84,2.74h0c-.88,2.43.3,5.14,2.65,6.05l12.73,4.97c2.34.91,4.96-.31,5.84-2.74h0c.88-2.43-.3-5.14-2.65-6.05Z"/><path class="cls-5" d="m121.63,374.74l-11.78-7.04c-2.17-1.3-4.94-.53-6.2,1.72h0c-1.25,2.25-.51,5.12,1.66,6.41l11.78,7.04c2.17,1.3,4.94.53,6.2-1.72h0c1.25-2.25.51-5.12-1.66-6.41Z"/><path class="cls-5" d="m81.58,361.04l11.26,7.91c2.07,1.46,4.89.9,6.3-1.25h0c1.41-2.15.87-5.07-1.21-6.52l-11.26-7.91c-2.07-1.46-4.89-.9-6.3,1.25h0c-1.41,2.15-.87,5.07,1.21,6.52Z"/><path class="cls-5" d="m74.62,345.77l-11.26-7.91c-2.07-1.46-4.89-.9-6.3,1.25h0c-1.41,2.15-.87,5.07,1.21,6.52l11.26,7.91c2.07,1.46,4.89.9,6.3-1.25h0c1.41-2.15.87-5.07-1.21-6.52Z"/><path class="cls-5" d="m51.49,329.51l-11.26-7.91c-2.07-1.46-4.89-.9-6.3,1.25h0c-1.41,2.15-.87,5.07,1.21,6.52l11.26,7.91c2.07,1.46,4.89.9,6.3-1.25h0c1.41-2.15.87-5.07-1.21-6.52Z"/><path class="cls-5" d="m178.35,472.66l-13.6.55c-2.5.1-4.45,2.29-4.35,4.88h0c.1,2.59,2.21,4.61,4.71,4.51l13.6-.55c2.5-.1,4.45-2.29,4.35-4.88h0c-.1-2.59-2.21-4.61-4.71-4.51Z"/><path class="cls-5" d="m584.1,539.44l13.44-2.17c2.47-.4,4.17-2.8,3.78-5.36h0c-.39-2.56-2.71-4.32-5.18-3.91l-13.44,2.17c-2.47.4-4.17,2.8-3.78,5.36h0c.39,2.56,2.71,4.32,5.18,3.91Z"/><ellipse class="cls-2" cx="402.88" cy="146.86" rx="21.64" ry="30.06"/><ellipse cx="401.2" cy="155.93" rx="11.77" ry="12.19"/><ellipse class="cls-2" cx="394.98" cy="154.75" rx="2.68" ry="2.77"/><ellipse class="cls-2" cx="306.06" cy="146.86" rx="21.64" ry="30.06"/><ellipse cx="305.37" cy="156.39" rx="11.77" ry="12.19"/><ellipse class="cls-2" cx="299.3" cy="154.75" rx="2.68" ry="2.77"/><path class="cls-1" d="m388.51,219.33c-4.79,11.93-14.62,21.9-27.27,25.11-6.77,1.72-13.58,1.12-20.16-1.1-5.88-1.98-11.67-4.84-16.59-8.64-5.17-4-9.32-9.24-10.83-15.69-.74-3.13-5.56-1.81-4.82,1.33,3.2,13.6,15.88,21.99,28.11,26.8,7.44,2.92,15.22,4.11,23.12,2.67,7.32-1.34,14.14-4.83,19.74-9.68,6.07-5.24,10.54-12.06,13.51-19.47.5-1.25-.55-2.75-1.75-3.08-1.43-.39-2.57.49-3.08,1.75h0Z"/><path class="cls-5" d="m244.57,254.49l-13.39-2.49c-2.47-.46-4.82,1.24-5.26,3.79h0c-.44,2.55,1.2,4.99,3.66,5.45l13.39,2.49c2.47.46,4.82-1.24,5.26-3.79h0c.44-2.55-1.2-4.99-3.66-5.45Z"/><path class="cls-5" d="m215.72,248.97l-13.14-3.67c-2.42-.68-4.91.81-5.56,3.31h0c-.65,2.5.78,5.08,3.2,5.76l13.14,3.67c2.42.68,4.91-.81,5.56-3.31h0c.65-2.5-.78-5.08-3.2-5.76Z"/><path class="cls-5" d="m185.22,240.03l-12.85-4.63c-2.37-.85-4.95.44-5.77,2.89h0c-.82,2.45.43,5.13,2.79,5.98l12.85,4.63c2.37.85,4.95-.44,5.77-2.89h0c.82-2.45-.43-5.13-2.79-5.98Z"/><path class="cls-5" d="m158.85,229.47l-12.05-6.54c-2.22-1.2-4.96-.32-6.12,1.98h0c-1.16,2.3-.31,5.13,1.91,6.34l12.05,6.54c2.22,1.2,4.96.32,6.12-1.98h0c1.16-2.3.31-5.13-1.91-6.34Z"/><path class="cls-5" d="m134.52,214.36l-10.87-8.47c-2-1.56-4.85-1.14-6.35.93h0c-1.51,2.07-1.1,5.02.9,6.58l10.87,8.47c2,1.56,4.85,1.14,6.35-.93h0c1.51-2.07,1.1-5.02-.9-6.58Z"/><path class="cls-5" d="m114.84,194.81l-8.2-11.24c-1.51-2.07-4.35-2.48-6.35-.92h0c-2,1.56-2.4,4.51-.89,6.58l8.2,11.24c1.51,2.07,4.35,2.48,6.35.92h0c2-1.56,2.4-4.51.89-6.58Z"/><path class="cls-5" d="m98.57,170.02l-5.5-12.88c-1.01-2.37-3.69-3.44-5.98-2.39h0c-2.29,1.05-3.33,3.82-2.31,6.19l5.5,12.88c1.01,2.37,3.69,3.44,5.98,2.39h0c2.29-1.05,3.33-3.82,2.31-6.19Z"/><path class="cls-5" d="m88.36,142.15l-3.76-13.54c-.69-2.49-3.2-3.93-5.61-3.22h0c-2.41.72-3.8,3.32-3.11,5.81l3.76,13.54c.69,2.49,3.2,3.93,5.61,3.22h0c2.41-.72,3.8-3.32,3.11-5.81Z"/><path class="cls-5" d="m81.45,113.59l-2.1-13.92c-.39-2.56-2.71-4.32-5.18-3.91h0c-2.47.4-4.17,2.8-3.78,5.36l2.1,13.92c.39,2.56,2.71,4.32,5.18,3.91h0c2.47-.4,4.17-2.8,3.78-5.36Z"/><path class="cls-5" d="m78.84,87.98l1.76-13.97c.32-2.57-1.43-4.93-3.91-5.26h0c-2.48-.34-4.76,1.48-5.08,4.05l-1.76,13.97c-.32,2.57,1.43,4.93,3.91,5.26h0c2.48.34,4.76-1.48,5.08-4.05Z"/></svg>