<?xml version="1.0" encoding="UTF-8"?><svg id="Layer_1" xmlns="http://www.w3.org/2000/svg" viewBox="0 0 1920 1080"><defs><style>.cls-1{fill:#f6eb12;}.cls-2{fill:#fad5e1;}.cls-3{fill:#050505;}.cls-4{fill:#0091d0;}.cls-5{fill:#f0e811;}.cls-6{fill:#f27421;}.cls-7{fill:#e95924;}.cls-8{fill:#ec1e24;}.cls-9{fill:#ec2e91;}.cls-10{fill:#ec157c;}.cls-11{fill:#ea6934;}.cls-12{fill:#eb2e91;}.cls-13{fill:#fff;}.cls-14{fill:#ef5050;}.cls-15{fill:#fdaa17;}.cls-16{fill:#746baf;}.cls-17{fill:#6c5ca7;}.cls-18{fill:#9267ab;}.cls-19{fill:#b7275c;}.cls-20{fill:#72b644;}.cls-21{fill:#bc4e9c;}.cls-22{fill:#319868;}.cls-23{fill:#cddb34;}.cls-24{fill:#b24e9c;}.cls-25{fill:#a77eb7;}.cls-26{fill:#aa509d;}.cls-27{fill:#ccc13c;}.cls-28{fill:#d23265;}.cls-29{fill:#d091bf;}.cls-30{fill:#dd9220;}.cls-31{fill:#de4b32;}.cls-32{fill:#d74497;}.cls-33{fill:#1cb2f4;}.cls-34{fill:#4252a2;}.cls-35{fill:#3fc3df;}.cls-36{fill:#090407;}.cls-37{fill:#13a6df;}.cls-38{fill:#a274b2;}.cls-39{fill:#94cd90;}.cls-40{fill:#2a2d2d;}.cls-41{fill:#314199;}.cls-42{fill:#308cb5;}.cls-43{fill:#5dc5cb;}.cls-44{fill:#73cde0;}.cls-45{fill:#79c043;}</style></defs><rect class="cls-33" x="1.52" y="-.71" width="1920" height="1080"/><rect class="cls-32" x="1524.05" y="486.25" width="53.89" height="4.86" rx="2.01" ry="2.01"/><polygon class="cls-5" points="1613.85 506.2 1582.59 489.85 1520.06 489.85 1493.25 503.87 1496 506.2 1613.85 506.2"/><polygon class="cls-32" points="1493.25 503.87 1477.1 490.15 1477.1 506.2 1488.79 506.2 1493.25 503.87"/><polygon class="cls-32" points="1496 506.2 1493.25 503.87 1488.79 506.2 1496 506.2"/><polygon class="cls-27" points="1492.93 508.37 1520.06 522.56 1582.59 522.56 1613.85 506.2 1496 506.2 1492.93 508.37"/><polygon class="cls-24" points="1492.93 508.37 1488.79 506.2 1477.1 506.2 1477.1 519.58 1492.93 508.37"/><polygon class="cls-24" points="1488.79 506.2 1492.93 508.37 1496 506.2 1488.79 506.2"/><path d="m1584.95,502.77c3.22,0,3.22-5,0-5s-3.22,5,0,5h0Z"/><path d="m1322.96,642.23c3.22,0,3.22-5,0-5s-3.22,5,0,5h0Z"/><path class="cls-34" d="m1275.91,645.11h53.61c0-14.46-12.2-26.19-27.26-26.19-13.73,0-25.08,9.75-26.98,22.43l2.48,2.07-1.86,1.68Z"/><path class="cls-34" d="m1275.29,641.35l-8.55-7.14v10.9h8.27c0-1.28.1-2.53.28-3.75Z"/><path class="cls-34" d="m1275.91,645.11l1.86-1.68-2.48-2.07c-.18,1.23-.28,2.48-.28,3.75h.91Z"/><path class="cls-41" d="m1275.02,645.91c.44,14.09,12.46,25.38,27.24,25.38s27.26-11.72,27.26-26.19h-53.61l-.89.8Z"/><path class="cls-41" d="m1275.02,645.91c0-.27-.02-.53-.02-.8h-8.27v8.29l8.29-7.49Z"/><path class="cls-41" d="m1275,645.11c0,.27.01.53.02.8l.89-.8h-.91Z"/><path d="m1323.21,652.57c3.22,0,3.22-5,0-5s-3.22,5,0,5h0Z"/><path class="cls-3" d="m524.54,672.12c.16,0,.32.01.48.01v-2.9l-.48,2.89Z"/><path class="cls-3" d="m525.02,669.23v-45.13l-.77.25v-3.29c-1.69.08-3.33.33-4.91.77l1.03,2.43-5.34,1.76v-2.52c-1.03.52-2.02,1.12-2.96,1.8l.97.89-4.16,3.99-.65-1.49c-1.01,1.11-1.94,2.31-2.75,3.59l1.01.36-2.43,5.38-.96-.95c-.58,1.54-1.02,3.16-1.31,4.84l1.49-.06-.5,5.95-1.38-.6c.04,1.62.21,3.21.51,4.74l.22-.11,1.64,5.71h-.09c.31.69.64,1.36,1,2.01l.6-1.27,4.62,3.36-2.38,2.04c.87,1.03,1.81,1.98,2.82,2.84v-.48s5.54.84,5.54.84l-1.15,2.63c1.61.85,3.32,1.51,5.11,1.95l-.36-1.5,5.54-.74Zm-14.78-32.77c-.34-.31-.68-.63-.83-1.02-.16-.39-.09-.85.28-1.08l.28-.04,4.12,2.92c.07-.95.14-1.9.21-2.85,1.37,1.25,2.74,2.51,4.1,3.76.1-.76.2-1.52.3-2.28,1.72,1.95,3.44,3.9,5.16,5.85-1.36-.72-2.71-1.43-4.07-2.15-.07.47-.14.94-.21,1.41-1.23-1.03-2.46-2.07-3.68-3.1-.12.65-.23,1.31-.35,1.96-1.99-.86-3.8-2.01-5.33-3.38Zm6.9,12.07c-1.59,0-2.88-1.38-2.88-3.08s1.29-3.08,2.88-3.08,2.88,1.38,2.88,3.08-1.29,3.08-2.88,3.08Z"/><path class="cls-3" d="m515.04,611.73v11.77c1.37-.7,2.81-1.26,4.3-1.67l-4.3-10.1Z"/><path class="cls-3" d="m520.38,624.26l-1.03-2.43c-1.5.41-2.94.97-4.3,1.67v2.52l5.34-1.76Z"/><path class="cls-3" d="m525.02,611.87l-.77-1.81v11c.26-.01.51-.02.77-.02v-9.17Z"/><path class="cls-3" d="m525.02,624.1v-3.05c-.26,0-.51,0-.77.02v3.29l.77-.25Z"/><path class="cls-3" d="m503.28,617.21l4.95,11.47c1.16-1.27,2.45-2.4,3.83-3.39l-8.79-8.08Z"/><path class="cls-3" d="m513.04,626.18l-.97-.89c-1.39.99-2.67,2.12-3.83,3.39l.65,1.49,4.16-3.99Z"/><path class="cls-3" d="m494.29,628.29l8.82,8.77c.64-1.69,1.43-3.3,2.38-4.79l-11.19-3.98Z"/><path class="cls-3" d="m506.5,632.64l-1.01-.36c-.94,1.49-1.74,3.1-2.38,4.79l.96.95,2.43-5.38Z"/><path class="cls-3" d="m501.39,646.59c0-1.6.14-3.17.41-4.69l-11.37.47,10.97,4.81c0-.2-.01-.4-.01-.6h0Z"/><path class="cls-3" d="m503.28,641.84l-1.49.06c-.26,1.52-.41,3.09-.41,4.69h0c0,.2,0,.4.01.6l1.38.6.5-5.95Z"/><path class="cls-3" d="m490.43,657.54h13.26c-.78-1.77-1.38-3.65-1.77-5.61l-11.49,5.61Z"/><path class="cls-3" d="m502.13,651.83l-.22.11c.39,1.96.99,3.84,1.77,5.61h.09l-1.64-5.71Z"/><path class="cls-3" d="m499.49,670.57l8.04-6.88c-1.07-1.27-2.02-2.66-2.83-4.14l-5.2,11.02Z"/><path class="cls-3" d="m505.29,658.29l-.6,1.27c.82,1.48,1.76,2.87,2.83,4.14l2.38-2.04-4.62-3.36Z"/><path class="cls-3" d="m510.2,679.82l4.53-10.3c-1.57-.83-3.03-1.83-4.38-2.99l-.15,13.29Z"/><path class="cls-3" d="m510.35,666.05v.48c1.34,1.16,2.81,2.16,4.38,2.99l1.15-2.63-5.53-.84Z"/><path class="cls-3" d="m522.7,683.3l1.85-11.18c-1.61-.05-3.19-.27-4.7-.65l2.86,11.83Z"/><path class="cls-3" d="m519.48,669.97l.36,1.5c1.52.38,3.09.6,4.7.65l.48-2.89-5.54.74Z"/><ellipse class="cls-40" cx="517.14" cy="645.45" rx="2.88" ry="3.08"/><path class="cls-40" d="m515.92,637.88c1.23,1.03,2.46,2.07,3.68,3.1.07-.47.14-.94.21-1.41,1.36.72,2.71,1.43,4.07,2.15-1.72-1.95-3.44-3.9-5.16-5.85-.1.76-.2,1.52-.3,2.28-1.37-1.25-2.74-2.51-4.1-3.76-.07.95-.14,1.9-.21,2.85l-4.12-2.92-.28.04c-.37.24-.44.7-.28,1.08.16.39.49.72.83,1.02,1.53,1.37,3.34,2.52,5.33,3.38.12-.65.23-1.31.35-1.96Z"/><path class="cls-40" d="m525.26,672.14c1.3,0,2.58-.12,3.83-.33l-.26-.86,5.48-1.2-.05.5c.38-.16.75-.34,1.12-.52l-.79-1.55,5.21-2.16.05.78c1.06-.88,2.06-1.85,2.97-2.91l-1.74-1.36,3.85-4.34.81,1.54c.66-1.17,1.23-2.41,1.71-3.69l-.86-.23,2.06-5.56.22.19c.11-.77.18-1.56.23-2.36l-.52.34-2.3-5.45,2.57-.35c-.31-2.14-.87-4.2-1.65-6.13l-3.1,1.51-1.64-5.71h2.6c-.68-1.08-1.44-2.09-2.26-3.05l-.58,1.17-4.55-3.47,1.44-1.18c-.89-.68-1.81-1.29-2.78-1.83l-.39,1.58-5.16-2.28.96-1.25c-.87-.26-1.75-.47-2.66-.63l.52,1.23-4.57,1.5v48.04c.08,0,.16,0,.24,0h0Zm6.8-24.35c-1.55,0-2.81-1.35-2.81-3s1.26-3,2.81-3,2.81,1.35,2.81,3-1.26,3-2.81,3Zm-1.89-12.12l.57,1.87c1.18-1.35,2.37-2.7,3.55-4.05.18.79.37,1.59.55,2.38,1.23-1.11,2.45-2.23,3.68-3.34l.28-.03c.39.12.51.5.41.86-.1.36-.39.71-.69,1.04-1.33,1.48-2.96,2.84-4.8,3.98-.19-.53-.39-1.06-.58-1.59-1.07,1.13-2.15,2.27-3.22,3.4-.13-.39-.25-.77-.38-1.16l-3.71,2.67c1.45-2.01,2.89-4.03,4.34-6.04Z"/><path class="cls-40" d="m525.26,621.04h0c1.3,0,2.57.11,3.81.33l-4.05-9.49v9.17c.08,0,.16,0,.24,0Z"/><path class="cls-40" d="m525.26,621.04c-.08,0-.16,0-.24,0v3.05l4.57-1.5-.52-1.23c-1.24-.21-2.51-.33-3.81-.33h0Z"/><path class="cls-40" d="m542.8,629.26l5.47-10.98-9.17,7.5c1.34,1.02,2.58,2.19,3.69,3.48Z"/><path class="cls-40" d="m542.22,630.43l.58-1.17c-1.11-1.29-2.35-2.46-3.69-3.48l-1.44,1.18,4.55,3.47Z"/><path class="cls-40" d="m549.14,646.59c0,.5-.02,1-.04,1.5l10.43-6.89-10.67,1.44c.19,1.29.29,2.61.29,3.95h0Z"/><path class="cls-40" d="m548.57,648.44l.52-.34c.03-.5.04-1,.04-1.5h0c0-1.34-.1-2.66-.29-3.95l-2.57.35,2.3,5.45Z"/><path class="cls-40" d="m555.81,632.3h-10.75c.83,1.32,1.55,2.73,2.14,4.2l8.61-4.2Z"/><path class="cls-40" d="m544.1,638.02l3.1-1.51c-.59-1.48-1.31-2.88-2.14-4.2h-2.6l1.64,5.71Z"/><path class="cls-40" d="m539.25,612.22l-7.53,9.77c1.61.48,3.14,1.14,4.59,1.95l2.93-11.72Z"/><path class="cls-40" d="m535.93,625.52l.39-1.58c-1.45-.81-2.99-1.47-4.59-1.95l-.96,1.25,5.16,2.28Z"/><path class="cls-40" d="m559.05,659.21l-10.19-8.76c-.28,1.95-.76,3.82-1.43,5.6l11.61,3.16Z"/><path class="cls-40" d="m546.58,655.82l.86.23c.66-1.78,1.15-3.65,1.43-5.6l-.22-.19-2.06,5.56Z"/><path class="cls-40" d="m551.47,670.65l-5.74-10.91c-.84,1.49-1.82,2.88-2.91,4.16l8.65,6.75Z"/><path class="cls-40" d="m541.08,662.54l1.74,1.36c1.1-1.27,2.07-2.67,2.91-4.16l-.81-1.54-3.85,4.34Z"/><path class="cls-40" d="m540.74,680.27l-.89-13.47c-1.38,1.14-2.88,2.13-4.47,2.93l5.36,10.54Z"/><path class="cls-40" d="m534.59,668.18l.79,1.55c1.6-.8,3.09-1.78,4.47-2.93l-.05-.78-5.21,2.16Z"/><path class="cls-40" d="m532.91,684.29l1.36-14.03c-1.64.72-3.37,1.24-5.17,1.55l3.82,12.48Z"/><path class="cls-40" d="m528.83,670.96l.26.86c1.8-.31,3.53-.84,5.17-1.55l.05-.5-5.48,1.2Z"/><ellipse class="cls-3" cx="532.06" cy="644.79" rx="2.81" ry="3"/><path class="cls-3" d="m529.93,640.21c1.07-1.13,2.15-2.27,3.22-3.4.19.53.39,1.06.58,1.59,1.84-1.14,3.47-2.5,4.8-3.98.3-.33.58-.68.69-1.04.1-.36-.02-.74-.41-.86l-.28.03c-1.23,1.11-2.45,2.23-3.68,3.34-.18-.79-.37-1.59-.55-2.38-1.18,1.35-2.37,2.7-3.55,4.05l-.57-1.87c-1.45,2.01-2.89,4.03-4.34,6.04l3.71-2.67c.13.39.25.77.38,1.16Z"/><path class="cls-17" d="m948.96,23.31c-193.35-11.13-307.72,122.37-294.69,249.6,13.04,127.23,102.87,353.19,280.11,368.8.43.04.9-3.34,1.31-1.49.66-207.16,7.12-411.61,14.46-618.36-.43-1.85-.72,1.48-1.19,1.45Z"/><path class="cls-16" d="m1226.06,270.91c17.64-120.13-87.88-251.57-275.46-247.54-8.07,204.22-14.53,408.67-14.46,618.36,156.06-15.43,272.28-250.69,289.92-370.82Z"/><path class="cls-17" d="m351.64,106.45c3.77-5.01,0,0,0,0,18.52-1.71,39.95,4.05,38.6,37.59-9.71,241.16,183.53,249.15,381.99,290.22,27.6,5.71,35.22,24.41,28.86,43.19,4.76.45,0,0,0,0-6.36,18.78-6.39,33.53-43.54,27.56-267.12-42.9-419.59-80.55-444.94-362.57-3.52-39.22,20.51-34.27,39.03-35.98Z"/><path class="cls-17" d="m225.51,590.84c.14-10.64,0,0,0,0,6.96-16.98,22.47-33.66,56.9-15.32,239.74,127.68,252.4,251.94,437.25-61.83,26.55-45.06,39.54-21.75,56.22-14.75,10.84-1.25,0,0,0,0,16.68,7,42.94,9.49,15.17,53.17-193.36,304.17-273.39,262.22-549.82,89.1-39.7-24.86-22.68-33.41-15.72-50.38Z"/><path class="cls-17" d="m480.88,914.59c-5.68-2.23,0,0,0,0-6.47-21.82-4.72-46.1,30.44-54.6,194.95-47.1,354.85-9.04,301.33-258.26-9.65-44.95,18.57-43.32,40.11-47.09,2.27-7.06,0,0,0,0,21.54-3.78,38.96-15.79,47.88,31.92,49.47,264.55-126.14,328.7-371.59,357.26-44.27,5.15-41.7-7.41-48.17-29.23Z"/><path class="cls-16" d="m1506.11,1020.55c5.75-.15,0,0,0,0-3.8,24.66-4.36,40.61-51.66,39.51-321.14-7.51-442.62-161.25-498.42-445.18-8.22-41.82,10.34-45.96,33.88-51.1,4.08-6.24,0,0,0,0,23.54-5.13,51.15-6.83,58.63,33.97,50.8,276.99,131.01,347.45,414.83,372.49,41.8,3.69,46.54,25.65,42.74,50.32Z"/><path class="cls-16" d="m1678.21,547.52c2.28-6.51,1.24-4.52,0,0,23.76,25.61,42.47,20.95,5.16,62.84-239.62,269.07-509.86,307.25-616.33-83.75-16.58-60.88.66-38.59,39.29-50.18,1.89-6.43.93-4.01,0,0,38.63-11.6,58.81-21.91,66.69,32.09,50.56,346.8,262.45,229.7,428.89,32.18,25.92-30.76,52.54-18.79,76.3,6.82Z"/><path class="cls-16" d="m1616.19,110.04c3.85-3.77,0,0,0,0,17.89,18.67,29.94,36.13-3.92,65.77-187.74,164.32-91.57,272.98-417.83,295.1-58.83,3.99-47.99-19.56-52.06-43.34-8.26-4.23,0,0,0,0-4.06-23.78-1.11-49.91,48.26-53.72,273.78-21.1,169.55-103.03,355.8-267.57,33.59-29.67,51.85-14.9,69.74,3.77Z"/><ellipse class="cls-29" cx="829.94" cy="364.11" rx="44.28" ry="15.99"/><ellipse class="cls-29" cx="1055.42" cy="364.37" rx="44.28" ry="15.99"/><path class="cls-25" d="m1228.37,468.11l-30.8,1.39c-5.67.26-10.05,4.79-9.77,10.14h0c.27,5.34,5.09,9.47,10.76,9.21l30.8-1.39c5.67-.26,10.05-4.79,9.77-10.14h0c-.27-5.34-5.09-9.47-10.76-9.21Z"/><path class="cls-25" d="m1285.95,459.76l-30.54,4c-5.62.74-9.55,5.63-8.77,10.92h0c.78,5.3,5.97,9,11.59,8.26l30.54-4c5.62-.74,9.55-5.63,8.77-10.92h0c-.78-5.3-5.97-9-11.59-8.26Z"/><path class="cls-25" d="m1345,445l-29.85,7.29c-5.49,1.34-8.79,6.63-7.37,11.8h0c1.42,5.18,7.03,8.29,12.53,6.94l29.85-7.29c5.49-1.34,8.79-6.63,7.37-11.8h0c-1.42-5.18-7.03-8.29-12.53-6.94Z"/><path class="cls-25" d="m1401.61,422.15l-27.43,13.26c-5.05,2.44-7.05,8.28-4.46,13.04h0c2.59,4.76,8.78,6.64,13.83,4.2l27.43-13.26c5.05-2.44,7.05-8.28,4.46-13.04h0c-2.59-4.76-8.78-6.64-13.83-4.2Z"/><path class="cls-25" d="m1448.05,384.34l-21.8,20.54c-4.01,3.78-4.01,9.91,0,13.7h0c4.01,3.78,10.52,3.78,14.53,0l21.8-20.54c4.01-3.78,4.01-9.91,0-13.7h0c-4.01-3.78-10.52-3.78-14.53,0Z"/><path class="cls-25" d="m1482.26,335.94l-16.41,24.6c-3.02,4.53-1.57,10.51,3.23,13.35h0c4.81,2.85,11.15,1.48,14.17-3.05l16.41-24.6c3.02-4.53,1.57-10.51-3.23-13.35h0c-4.81-2.85-11.15-1.48-14.17,3.05Z"/><path class="cls-25" d="m1514.99,283.26l-15.42,25.16c-2.84,4.63-1.15,10.55,3.76,13.23h0c4.92,2.67,11.2,1.09,14.04-3.54l15.42-25.16c2.84-4.63,1.15-10.55-3.76-13.23h0c-4.92-2.67-11.2-1.09-14.04,3.54Z"/><path class="cls-25" d="m1550.39,237.61l-18.04,23.56c-3.32,4.34-2.28,10.39,2.32,13.52h0c4.6,3.13,11.03,2.15,14.35-2.19l18.04-23.56c3.32-4.34,2.28-10.39-2.32-13.52h0c-4.6-3.13-11.03-2.15-14.35,2.19Z"/><path class="cls-25" d="m1588.03,196.86l-20.45,21.74c-3.76,4-3.37,10.12.87,13.67h0c4.25,3.55,10.74,3.18,14.51-.82l20.45-21.74c3.76-4,3.37-10.12-.87-13.67h0c-4.25-3.55-10.74-3.18-14.51.82Z"/><path class="cls-25" d="m1627.47,159.24l-21.8,20.54c-4.01,3.78-4.01,9.91,0,13.7h0c4.01,3.78,10.52,3.78,14.53,0l21.8-20.54c4.01-3.78,4.01-9.91,0-13.7h0c-4.01-3.78-10.52-3.78-14.53,0Z"/><path class="cls-25" d="m1097.6,609.69l-12.23-26.67c-2.25-4.91-8.3-7.17-13.51-5.05h0c-5.21,2.12-7.61,7.82-5.36,12.73l12.23,26.67c2.25,4.91,8.3,7.17,13.51,5.05h0c5.21-2.12,7.61-7.82,5.36-12.73Z"/><path class="cls-25" d="m1119.52,661.32l-13.55-26.1c-2.49-4.8-8.65-6.79-13.75-4.44h0c-5.1,2.35-7.21,8.15-4.72,12.95l13.55,26.1c2.49,4.8,8.65,6.79,13.75,4.44h0c5.1-2.35,7.21-8.15,4.72-12.95Z"/><path class="cls-25" d="m1148.68,711.83l-15.42-25.16c-2.84-4.63-9.12-6.22-14.04-3.54h0c-4.92,2.67-6.6,8.6-3.76,13.23l15.42,25.16c2.84,4.63,9.12,6.22,14.04,3.54h0c4.92-2.67,6.6-8.6,3.76-13.23Z"/><path class="cls-25" d="m1189.51,754.96l-20.6-21.61c-3.79-3.98-10.29-4.31-14.51-.73h0c-4.22,3.57-4.57,9.7-.78,13.68l20.6,21.61c3.79,3.98,10.29,4.31,14.51.73h0c4.22-3.57,4.57-9.7.78-13.68Z"/><path class="cls-25" d="m971.17,680.86l-4.76-28.71c-.88-5.28-6.13-8.9-11.74-8.07h0c-5.61.83-9.44,5.78-8.57,11.06l4.76,28.71c.88,5.28,6.13,8.9,11.74,8.07h0c5.61-.83,9.44-5.78,8.57-11.06Z"/><path class="cls-25" d="m1465.39,784.81l-28.64,10.77c-5.27,1.98-7.84,7.62-5.74,12.58h0c2.1,4.97,8.08,7.39,13.35,5.41l28.64-10.77c5.27-1.98,7.84-7.62,5.74-12.58h0c-2.1-4.97-8.08-7.39-13.35-5.41Z"/><path class="cls-25" d="m1410.04,803.2l-29.79,7.5c-5.48,1.38-8.74,6.69-7.28,11.86h0c1.46,5.17,7.1,8.24,12.58,6.86l29.79-7.5c5.48-1.38,8.74-6.69,7.28-11.86h0c-1.46-5.17-7.1-8.24-12.58-6.86Z"/><rect class="cls-25" x="1308.19" y="814.26" width="51.39" height="19.37" rx="3.43" ry="3.43"/><path class="cls-25" d="m1288.35,809.67l-29.25-9.19c-5.38-1.69-11.21,1.05-13,6.12h0c-1.8,5.07,1.11,10.56,6.5,12.25l29.25,9.19c5.38,1.69,11.21-1.05,13-6.12h0c1.8-5.07-1.11-10.56-6.5-12.25Z"/><path class="cls-25" d="m1233.66,789.72l-25.09-16.89c-4.62-3.11-11.04-2.1-14.34,2.25h0c-3.3,4.35-2.23,10.4,2.39,13.51l25.09,16.89c4.62,3.11,11.04,2.1,14.34-2.25h0c3.3-4.35,2.23-10.4-2.39-13.51Z"/><path class="cls-25" d="m1497.43,789.39l26.7-14.53c4.92-2.67,6.6-8.6,3.76-13.23h0c-2.84-4.63-9.12-6.22-14.04-3.54l-26.7,14.53c-4.92,2.67-6.6,8.6-3.76,13.23h0c2.84,4.63,9.12,6.22,14.04,3.54Z"/><path class="cls-25" d="m1560.07,725.63l-24.38,17.79c-4.49,3.27-5.31,9.36-1.83,13.59h0c3.48,4.23,9.93,5,14.42,1.73l24.38-17.79c4.49-3.27,5.31-9.36,1.83-13.59h0c-3.48-4.23-9.93-5-14.42-1.73Z"/><path class="cls-25" d="m1602.73,690.77l-22.78,19.58c-4.19,3.61-4.49,9.73-.66,13.68h0c3.83,3.95,10.33,4.23,14.52.63l22.78-19.58c4.19-3.61,4.49-9.73.66-13.68h0c-3.83-3.95-10.33-4.23-14.52-.63Z"/><path class="cls-25" d="m1642.84,651.89l-20.96,21.31c-3.86,3.92-3.61,10.05.55,13.69h0c4.16,3.64,10.67,3.4,14.52-.52l20.96-21.31c3.86-3.92,3.61-10.05-.55-13.69h0c-4.16-3.64-10.67-3.4-14.52.52Z"/><path class="cls-25" d="m1682.44,610.31l-19.51,22.5c-3.59,4.14-2.94,10.24,1.46,13.63h0c4.4,3.38,10.87,2.77,14.46-1.37l19.51-22.5c3.59-4.14,2.94-10.24-1.46-13.63h0c-4.4-3.38-10.87-2.77-14.46,1.37Z"/><path class="cls-25" d="m991,735.23l-7.96-28.07c-1.46-5.17-7.1-8.24-12.58-6.86h0c-5.48,1.38-8.74,6.69-7.28,11.86l7.96,28.07c1.46,5.17,7.1,8.24,12.58,6.86h0c5.48-1.38,8.74-6.69,7.28-11.86Z"/><path class="cls-25" d="m1008.1,789.86l-11.04-27.13c-2.03-4.99-7.98-7.49-13.28-5.57h0c-5.3,1.92-7.95,7.52-5.92,12.51l11.04,27.13c2.03,4.99,7.98,7.49,13.28,5.57h0c5.3-1.92,7.95-7.52,5.92-12.51Z"/><path class="cls-25" d="m1032.72,841.64l-13.5-26.12c-2.49-4.81-8.64-6.81-13.74-4.47h0c-5.1,2.34-7.22,8.14-4.74,12.95l13.5,26.12c2.49,4.81,8.64,6.81,13.74,4.47h0c5.1-2.34,7.22-8.14,4.74-12.95Z"/><path class="cls-25" d="m1064.36,891.17l-17.05-24.21c-3.14-4.46-9.52-5.67-14.25-2.72h0c-4.73,2.96-6.02,8.97-2.88,13.42l17.05,24.21c3.14,4.46,9.52,5.67,14.25,2.72h0c4.73-2.96,6.02-8.97,2.88-13.42Z"/><path class="cls-25" d="m1103.76,938.15l-20.57-21.64c-3.79-3.98-10.29-4.32-14.51-.75h0c-4.23,3.57-4.58,9.69-.8,13.68l20.57,21.64c3.79,3.98,10.29,4.32,14.51.75h0c4.23-3.57,4.58-9.69.8-13.68Z"/><path class="cls-25" d="m1149.03,974.97l-23.93-18.32c-4.4-3.37-10.88-2.74-14.46,1.41h0c-3.58,4.15-2.91,10.25,1.49,13.62l23.93,18.32c4.4,3.37,10.88,2.74,14.46-1.41h0c3.58-4.15,2.91-10.25-1.49-13.62Z"/><path class="cls-25" d="m1198.89,1006.29l-26.7-14.53c-4.92-2.67-11.2-1.09-14.04,3.54h0c-2.84,4.63-1.15,10.55,3.76,13.23l26.7,14.53c4.92,2.67,11.2,1.09,14.04-3.54h0c2.84-4.63,1.15-10.55-3.76-13.23Z"/><path class="cls-25" d="m1254,1029.08l-28.55-10.97c-5.26-2.02-11.25.36-13.4,5.31h0c-2.14,4.95.38,10.6,5.63,12.62l28.55,10.97c5.26,2.02,11.25-.36,13.4-5.31h0c2.14-4.95-.38-10.6-5.63-12.62Z"/><path class="cls-25" d="m1309.91,1044.27l-29.76-7.61c-5.48-1.4-11.12,1.65-12.61,6.81h0c-1.49,5.16,1.75,10.48,7.23,11.88l29.76,7.61c5.48,1.4,11.12-1.65,12.61-6.81h0c1.49-5.16-1.75-10.48-7.23-11.88Z"/><path class="cls-25" d="m1368.44,1052.63l-30.51-4.21c-5.62-.78-10.84,2.88-11.66,8.18h0c-.82,5.29,3.06,10.21,8.68,10.99l30.51,4.21c5.62.78,10.84-2.88,11.66-8.18h0c.82-5.29-3.06-10.21-8.68-10.99Z"/><path class="cls-25" d="m1427.22,1057.89l-30.77-1.91c-5.66-.35-10.56,3.69-10.93,9.03h0c-.37,5.34,3.92,9.95,9.58,10.3l30.77,1.91c5.66.35,10.56-3.69,10.93-9.03h0c.37-5.34-3.92-9.95-9.58-10.3Z"/><rect class="cls-25" x="895.08" y="657.72" width="48.42" height="20.55" rx="3.43" ry="3.43" transform="translate(1587.29 -251.29) rotate(90)"/><path class="cls-25" d="m921.24,739.74l5.59-28.57c1.03-5.26-2.66-10.31-8.24-11.28h0c-5.58-.97-10.94,2.51-11.97,7.77l-5.59,28.57c-1.03,5.26,2.66,10.31,8.24,11.28h0c5.58.97,10.94-2.51,11.97-7.77Z"/><path class="cls-25" d="m900.75,795.47l10.91-27.17c2.01-5-.67-10.59-5.98-12.48h0c-5.31-1.89-11.24.63-13.25,5.63l-10.91,27.17c-2.01,5,.67,10.59,5.98,12.48h0c5.31,1.89,11.24-.63,13.25-5.63Z"/><path class="cls-25" d="m862.5,846.61l19.13-22.79c3.52-4.19,2.77-10.29-1.69-13.6h0c-4.45-3.32-10.92-2.61-14.44,1.59l-19.13,22.79c-3.52,4.19-2.77,10.29,1.69,13.6h0c4.45,3.32,10.92,2.61,14.44-1.59Z"/><path class="cls-25" d="m812.52,886.57l25.25-16.67c4.65-3.07,5.78-9.11,2.52-13.49h0c-3.26-4.38-9.67-5.44-14.31-2.37l-25.25,16.67c-4.65,3.07-5.78,9.11-2.52,13.49h0c3.26,4.38,9.67,5.44,14.31,2.37Z"/><path class="cls-25" d="m752.01,914.81l28.46-11.18c5.24-2.06,7.72-7.73,5.53-12.66h0c-2.18-4.94-8.2-7.27-13.44-5.21l-28.46,11.18c-5.24,2.06-7.72,7.73-5.53,12.66h0c2.18,4.94,8.2,7.27,13.44,5.21Z"/><path class="cls-25" d="m692.29,934.05l29.34-8.94c5.4-1.65,8.36-7.11,6.62-12.19h0c-1.75-5.09-7.54-7.88-12.94-6.23l-29.34,8.94c-5.4,1.65-8.36,7.11-6.62,12.19h0c1.75,5.09,7.54,7.88,12.94,6.23Z"/><path class="cls-25" d="m631.64,947.57l30.27-5.52c5.57-1.02,9.21-6.1,8.14-11.35h0c-1.08-5.25-6.47-8.68-12.04-7.67l-30.27,5.52c-5.57,1.02-9.21,6.1-8.14,11.35h0c1.08,5.25,6.47,8.68,12.04,7.67Z"/><path class="cls-25" d="m572.79,956.79l30.46-4.48c5.61-.83,9.44-5.78,8.57-11.06h0c-.88-5.28-6.13-8.9-11.74-8.07l-30.46,4.48c-5.61.83-9.44,5.78-8.57,11.06h0c.88,5.28,6.13,8.9,11.74,8.07Z"/><path class="cls-25" d="m773.11,611.84l17.92-23.64c3.3-4.35,2.23-10.4-2.39-13.51h0c-4.62-3.11-11.04-2.1-14.34,2.25l-17.92,23.64c-3.3,4.35-2.23,10.4,2.39,13.51h0c4.62,3.11,11.04,2.1,14.34-2.25Z"/><path class="cls-25" d="m739.89,661.24l17.92-23.64c3.3-4.35,2.23-10.4-2.39-13.51h0c-4.62-3.11-11.04-2.1-14.34,2.25l-17.92,23.64c-3.3,4.35-2.23,10.4,2.39,13.51h0c4.62,3.11,11.04,2.1,14.34-2.25Z"/><path class="cls-25" d="m696.21,710.3l20.67-21.56c3.8-3.97,3.47-10.09-.74-13.68h0c-4.21-3.58-10.71-3.27-14.52.7l-20.67,21.56c-3.8,3.97-3.47,10.09.74,13.68h0c4.21,3.58,10.71,3.27,14.52-.7Z"/><path class="cls-25" d="m653.22,752.87l22.89-19.46c4.21-3.58,4.55-9.71.74-13.68h0c-3.8-3.97-10.3-4.28-14.52-.7l-22.89,19.46c-4.21,3.58-4.55,9.71-.74,13.68h0c3.8,3.97,10.3,4.28,14.52.7Z"/><path class="cls-25" d="m597.07,782.15l28.17-11.8c5.19-2.17,7.52-7.9,5.22-12.78h0c-2.31-4.89-8.38-7.09-13.57-4.92l-28.17,11.8c-5.19,2.17-7.52,7.9-5.22,12.78h0c2.31,4.89,8.38,7.09,13.57,4.92Z"/><rect class="cls-25" x="509.54" y="773.92" width="51.39" height="19.37" rx="3.43" ry="3.43"/><path class="cls-25" d="m474.29,766.25l-28.85-10.24c-5.31-1.89-11.24.64-13.24,5.65h0c-2,5.01.68,10.59,5.99,12.48l28.85,10.24c5.31,1.89,11.24-.64,13.24-5.65h0c2-5.01-.68-10.59-5.99-12.48Z"/><path class="cls-25" d="m412.02,740.48l-26.7-14.53c-4.92-2.67-11.2-1.09-14.04,3.54h0c-2.84,4.63-1.15,10.55,3.76,13.23l26.7,14.53c4.92,2.67,11.2,1.09,14.04-3.54h0c2.84-4.63,1.15-10.55-3.76-13.23Z"/><path class="cls-25" d="m321.27,712.23l25.51,16.32c4.7,3,11.09,1.85,14.28-2.57h0c3.19-4.43,1.97-10.45-2.73-13.45l-25.51-16.32c-4.7-3-11.09-1.85-14.28,2.57h0c-3.19,4.43-1.97,10.45,2.73,13.45Z"/><path class="cls-25" d="m305.49,680.73l-25.51-16.32c-4.7-3-11.09-1.85-14.28,2.57h0c-3.19,4.43-1.97,10.45,2.73,13.45l25.51,16.32c4.7,3,11.09,1.85,14.28-2.57h0c3.19-4.43,1.97-10.45-2.73-13.45Z"/><path class="cls-25" d="m253.08,647.21l-25.51-16.32c-4.7-3-11.09-1.85-14.28,2.57h0c-3.19,4.43-1.97,10.45,2.73,13.45l25.51,16.32c4.7,3,11.09,1.85,14.28-2.57h0c3.19-4.43,1.97-10.45-2.73-13.45Z"/><path class="cls-25" d="m544.01,942.32l-37.74,1.4c-3.75.14-6.68,3.08-6.53,6.58l.28,6.69c.15,3.5,3.31,6.22,7.07,6.08l37.74-1.4c3.75-.14,6.68-3.08,6.53-6.58l-.28-6.69c-.15-3.5-3.31-6.22-7.07-6.08Z"/><path class="cls-25" d="m1460.02,1080.17l30.46-4.48c5.61-.83,9.44-5.78,8.57-11.06h0c-.88-5.28-6.13-8.9-11.74-8.07l-30.46,4.48c-5.61.83-9.44,5.78-8.57,11.06h0c.88,5.28,6.13,8.9,11.74,8.07Z"/><ellipse class="cls-13" cx="1049.35" cy="270.51" rx="49.05" ry="62"/><ellipse cx="1045.55" cy="289.2" rx="26.68" ry="25.14"/><ellipse class="cls-13" cx="1031.46" cy="286.78" rx="6.07" ry="5.72"/><ellipse class="cls-13" cx="829.94" cy="270.51" rx="49.05" ry="62"/><ellipse cx="828.39" cy="290.17" rx="26.68" ry="25.14"/><ellipse class="cls-13" cx="814.64" cy="286.78" rx="6.07" ry="5.72"/><path class="cls-2" d="m1020.08,420.07c-5.73,13.05-14.2,24.78-24.93,34.18-11.26,9.86-24.92,16.77-39.5,20.11-7.52,1.72-15.24,2.45-22.95,2.14s-16.02-1.95-23.75-4.29c-13.82-4.19-27.39-10.21-39.25-18.52-10.36-7.26-19.82-16.93-24.19-29.03-.55-1.52-1.02-3.07-1.41-4.64-.79-3.12-5.61-1.8-4.82,1.33,3.38,13.34,12.21,24.45,22.85,32.88,11.64,9.22,25.17,15.76,39.11,20.7,8.16,2.89,16.56,5.07,25.17,6.08,8.06.94,16.19.65,24.2-.6,15.77-2.46,30.8-9.03,43.41-18.79,11.72-9.07,21.35-20.81,28.03-34.03.83-1.64,1.61-3.3,2.34-4.98.54-1.24.36-2.68-.9-3.42-1.06-.62-2.88-.35-3.42.9h0Z"/><path class="cls-25" d="m690.61,492.49l-30.35-5.13c-5.59-.94-10.93,2.56-11.93,7.82h0c-1,5.26,2.72,10.3,8.3,11.24l30.35,5.13c5.59.94,10.93-2.56,11.93-7.82h0c1-5.26-2.72-10.3-8.3-11.24Z"/><path class="cls-25" d="m625.23,481.11l-29.77-7.57c-5.48-1.39-11.12,1.66-12.6,6.83h0c-1.48,5.16,1.77,10.48,7.25,11.87l29.77,7.57c5.48,1.39,11.12-1.66,12.6-6.83h0c1.48-5.16-1.77-10.48-7.25-11.87Z"/><path class="cls-25" d="m556.12,462.66l-29.12-9.56c-5.36-1.76-11.22.91-13.09,5.96h0c-1.87,5.05.96,10.57,6.32,12.33l29.12,9.56c5.36,1.76,11.22-.91,13.09-5.96h0c1.87-5.05-.96-10.57-6.32-12.33Z"/><path class="cls-25" d="m496.35,440.88l-27.31-13.48c-5.03-2.48-11.24-.65-13.87,4.08h0c-2.63,4.74-.69,10.59,4.33,13.07l27.31,13.48c5.03,2.48,11.24.65,13.87-4.08h0c2.63-4.74.69-10.59-4.33-13.07Z"/><path class="cls-25" d="m441.24,409.72l-24.64-17.46c-4.54-3.22-10.98-2.36-14.39,1.92h0c-3.41,4.27-2.5,10.35,2.04,13.56l24.64,17.46c4.54,3.22,10.98,2.36,14.39-1.92h0c3.41-4.27,2.5-10.35-2.04-13.56Z"/><path class="cls-25" d="m396.64,369.39l-18.57-23.19c-3.42-4.27-9.86-5.12-14.39-1.9h0c-4.53,3.22-5.43,9.29-2.01,13.56l18.57,23.19c3.42,4.27,9.86,5.12,14.39,1.9h0c4.53-3.22,5.43-9.29,2.01-13.56Z"/><path class="cls-25" d="m359.77,318.26l-12.47-26.57c-2.3-4.89-8.37-7.1-13.56-4.94h0c-5.19,2.16-7.54,7.88-5.24,12.77l12.47,26.57c2.3,4.89,8.37,7.1,13.56,4.94h0c5.19-2.16,7.54-7.88,5.24-12.77Z"/><path class="cls-25" d="m336.63,260.79l-8.51-27.92c-1.57-5.14-7.26-8.11-12.72-6.63h0c-5.46,1.48-8.61,6.84-7.04,11.98l8.51,27.92c1.57,5.14,7.26,8.11,12.72,6.63h0c5.46-1.48,8.61-6.84,7.04-11.98Z"/><path class="cls-25" d="m320.97,201.89l-4.76-28.71c-.88-5.28-6.13-8.9-11.74-8.07h0c-5.61.83-9.44,5.78-8.57,11.06l4.76,28.71c.88,5.28,6.13,8.9,11.74,8.07h0c5.61-.83,9.44-5.78,8.57-11.06Z"/><path class="cls-25" d="m315.05,149.08l3.99-28.81c.74-5.3-3.23-10.16-8.86-10.86h0c-5.63-.69-10.79,3.05-11.52,8.35l-3.99,28.81c-.74,5.3,3.23,10.16,8.86,10.86h0c5.63.69,10.79-3.05,11.52-8.35Z"/><ellipse class="cls-6" cx="914.05" cy="973.29" rx="64.88" ry="28.92"/><polygon class="cls-6" points="806.52 950.08 861.54 974.93 810.4 996.5 806.52 950.08"/><path class="cls-11" d="m978.93,973.29c-2.4,5.5-17.16,2.59-64.61,3.16-43.44.52-62.12,3.34-65.14-3.16-2.99-6.43,11.88-16.63,12.82-17.26,19.95-13.44,52.06-11.66,52.05-11.66,0,0,18.31.14,28.74,2.11,20.19,3.81,39.2,19.81,36.14,26.81Z"/><polygon class="cls-11" points="865.45 977.49 808.71 976.26 806.52 950.08 865.45 977.49"/><path d="m964.75,968.68c3.22,0,3.22-5,0-5s-3.22,5,0,5h0Z"/><path class="cls-34" d="m500.52,87.29h48c0-12.15-10.93-22-24.41-22-12.29,0-22.46,8.19-24.15,18.85l2.22,1.74-1.67,1.41Z"/><path class="cls-34" d="m499.96,84.14l-7.66-6v9.15h7.41c0-1.07.09-2.12.25-3.15Z"/><path class="cls-34" d="m500.52,87.29l1.67-1.41-2.22-1.74c-.16,1.03-.25,2.08-.25,3.15h.81Z"/><path class="cls-41" d="m499.72,87.96c.4,11.84,11.16,21.33,24.39,21.33s24.41-9.85,24.41-22h-48l-.79.67Z"/><path class="cls-41" d="m499.72,87.96c0-.22-.02-.45-.02-.67h-7.41v6.97l7.42-6.29Z"/><path class="cls-41" d="m499.7,87.29c0,.23.01.45.02.67l.79-.67h-.81Z"/><path d="m542.65,85.28c3.22,0,3.22-5,0-5s-3.22,5,0,5h0Z"/><path class="cls-3" d="m100.32,900.2c.29,0,.57.02.86.02v-5.1l-.86,5.07Z"/><path class="cls-3" d="m101.18,895.12v-79.21l-1.39.45v-5.77c-3.05.13-6.02.59-8.87,1.34l1.87,4.26-9.65,3.09v-4.42c-1.86.92-3.65,1.97-5.35,3.15l1.75,1.56-7.51,7.01-1.17-2.62c-1.83,1.94-3.5,4.05-4.98,6.31l1.83.63-4.39,9.45-1.73-1.67c-1.05,2.71-1.85,5.55-2.37,8.49l2.69-.11-.91,10.45-2.49-1.06c.06,2.85.37,5.63.93,8.32l.39-.19,2.97,10.03h-.16c.55,1.21,1.16,2.39,1.81,3.54l1.08-2.23,8.35,5.9-4.31,3.58c1.57,1.81,3.27,3.47,5.1,4.99v-.85s10,1.48,10,1.48l-2.09,4.61c2.91,1.49,6.01,2.64,9.24,3.42l-.66-2.64,10.02-1.29Zm-26.7-57.51c-.62-.54-1.22-1.11-1.5-1.79-.28-.68-.16-1.49.51-1.9l.51-.07,7.45,5.13c.12-1.67.25-3.34.37-5.01,2.47,2.2,4.94,4.4,7.42,6.6.18-1.33.36-2.67.54-4,3.11,3.42,6.22,6.84,9.33,10.26-2.45-1.26-4.9-2.51-7.35-3.77-.12.83-.25,1.65-.37,2.48-2.22-1.81-4.44-3.63-6.66-5.44-.21,1.15-.42,2.29-.62,3.44-3.59-1.5-6.87-3.53-9.63-5.93Zm12.47,21.19c-2.88,0-5.21-2.42-5.21-5.41s2.33-5.41,5.21-5.41,5.21,2.42,5.21,5.41-2.33,5.41-5.21,5.41Z"/><path class="cls-3" d="m83.13,794.21v20.65c2.47-1.22,5.07-2.21,7.78-2.92l-7.78-17.73Z"/><path class="cls-3" d="m92.78,816.2l-1.87-4.26c-2.7.72-5.31,1.7-7.78,2.92v4.42l9.65-3.09Z"/><path class="cls-3" d="m101.18,794.46l-1.39-3.17v19.3c.46-.02.93-.03,1.39-.04v-16.1Z"/><path class="cls-3" d="m101.18,815.92v-5.36c-.47,0-.93.02-1.39.04v5.77l1.39-.45Z"/><path class="cls-3" d="m61.9,803.83l8.95,20.14c2.1-2.22,4.42-4.22,6.93-5.95l-15.88-14.19Z"/><path class="cls-3" d="m79.53,819.58l-1.75-1.56c-2.51,1.73-4.83,3.73-6.93,5.95l1.17,2.62,7.51-7.01Z"/><path class="cls-3" d="m45.64,823.28l15.94,15.4c1.15-2.97,2.59-5.79,4.29-8.41l-20.23-6.99Z"/><path class="cls-3" d="m67.71,830.9l-1.83-.63c-1.71,2.62-3.14,5.44-4.29,8.41l1.73,1.67,4.39-9.45Z"/><path class="cls-3" d="m58.47,855.39c0-2.81.26-5.56.74-8.23l-20.54.83,19.83,8.45c0-.35-.03-.7-.03-1.05h0Z"/><path class="cls-3" d="m61.9,847.05l-2.69.11c-.48,2.67-.74,5.42-.74,8.23h0c0,.35.02.7.03,1.05l2.49,1.06.91-10.45Z"/><path class="cls-3" d="m38.67,874.61h23.96c-1.42-3.1-2.5-6.4-3.21-9.84l-20.76,9.84Z"/><path class="cls-3" d="m59.82,864.58l-.39.19c.7,3.44,1.79,6.74,3.21,9.84h.16l-2.97-10.03Z"/><path class="cls-3" d="m55.04,897.48l14.53-12.08c-1.93-2.23-3.65-4.66-5.12-7.26l-9.4,19.34Z"/><path class="cls-3" d="m65.53,875.91l-1.08,2.23c1.47,2.6,3.19,5.03,5.12,7.26l4.31-3.58-8.35-5.9Z"/><path class="cls-3" d="m74.39,913.71l8.19-18.08c-2.83-1.45-5.48-3.21-7.92-5.24l-.27,23.32Z"/><path class="cls-3" d="m74.67,889.54v.85c2.43,2.03,5.08,3.79,7.91,5.24l2.09-4.61-9.99-1.48Z"/><path class="cls-3" d="m96.98,919.81l3.33-19.61c-2.92-.09-5.76-.48-8.5-1.14l5.16,20.76Z"/><path class="cls-3" d="m91.16,896.42l.66,2.64c2.74.66,5.58,1.05,8.5,1.14l.86-5.07-10.02,1.29Z"/><ellipse class="cls-40" cx="86.94" cy="853.39" rx="5.21" ry="5.41"/><path class="cls-40" d="m84.73,840.1c2.22,1.81,4.44,3.63,6.66,5.44.12-.83.25-1.65.37-2.48,2.45,1.26,4.9,2.51,7.35,3.77-3.11-3.42-6.22-6.84-9.33-10.26-.18,1.33-.36,2.67-.54,4-2.47-2.2-4.94-4.4-7.42-6.6-.12,1.67-.25,3.34-.37,5.01l-7.45-5.13-.51.07c-.67.41-.79,1.22-.51,1.9.28.68.89,1.26,1.5,1.79,2.76,2.4,6.04,4.43,9.63,5.93.21-1.15.42-2.29.62-3.44Z"/><path class="cls-40" d="m101.61,900.23c2.36,0,4.67-.2,6.92-.58l-.47-1.5,9.91-2.11-.09.88c.68-.29,1.35-.59,2.02-.92l-1.43-2.72,9.41-3.79.09,1.38c1.92-1.55,3.72-3.25,5.36-5.11l-3.15-2.38,6.95-7.61,1.46,2.69c1.19-2.06,2.22-4.22,3.08-6.48l-1.55-.41,3.73-9.75.4.33c.2-1.36.33-2.74.41-4.14l-.94.6-4.15-9.56,4.65-.61c-.56-3.76-1.58-7.37-2.98-10.76l-5.6,2.65-2.97-10.03h4.69c-1.23-1.89-2.6-3.68-4.09-5.35l-1.05,2.05-8.22-6.09,2.6-2.06c-1.6-1.19-3.28-2.26-5.03-3.21l-.71,2.77-9.33-4,1.74-2.2c-1.57-.46-3.17-.83-4.8-1.1l.95,2.16-8.26,2.64v84.3c.15,0,.29.01.43.01h0Zm12.28-42.73c-2.8,0-5.07-2.36-5.07-5.27s2.27-5.27,5.07-5.27,5.07,2.36,5.07,5.27-2.27,5.27-5.07,5.27Zm-3.41-21.27l1.03,3.29c2.14-2.37,4.28-4.74,6.42-7.11.33,1.39.66,2.79.99,4.18,2.21-1.96,4.43-3.91,6.64-5.87l.51-.04c.71.22.93.88.74,1.51-.19.63-.71,1.25-1.24,1.83-2.39,2.6-5.35,4.98-8.67,6.98-.35-.93-.7-1.87-1.04-2.8-1.94,1.99-3.88,3.98-5.83,5.97-.23-.68-.45-1.35-.68-2.03-2.24,1.56-4.48,3.13-6.71,4.69,2.61-3.54,5.22-7.07,7.84-10.61Z"/><path class="cls-40" d="m101.61,810.55h0c2.34,0,4.64.2,6.88.57l-7.31-16.66v16.1c.15,0,.29-.01.43-.01Z"/><path class="cls-40" d="m101.61,810.55c-.15,0-.29,0-.43.01v5.36l8.26-2.64-.95-2.16c-2.24-.37-4.54-.57-6.88-.57h0Z"/><path class="cls-40" d="m133.3,824.97l9.89-19.27-16.57,13.16c2.42,1.8,4.66,3.84,6.67,6.1Z"/><path class="cls-40" d="m132.25,827.02l1.05-2.05c-2.01-2.27-4.25-4.31-6.67-6.1l-2.6,2.06,8.22,6.09Z"/><path class="cls-40" d="m144.76,855.39c0,.89-.03,1.76-.08,2.64l18.84-12.1-19.28,2.52c.34,2.26.52,4.58.52,6.94h0Z"/><path class="cls-40" d="m143.74,858.63l.94-.6c.05-.87.08-1.75.08-2.64h0c0-2.36-.18-4.68-.52-6.94l-4.65.61,4.15,9.56Z"/><path class="cls-40" d="m156.82,830.32h-19.43c1.5,2.31,2.8,4.78,3.87,7.38l15.56-7.38Z"/><path class="cls-40" d="m135.66,840.35l5.6-2.65c-1.07-2.59-2.37-5.06-3.87-7.38h-4.69l2.97,10.03Z"/><path class="cls-40" d="m126.89,795.08l-13.6,17.15c2.9.85,5.68,2,8.3,3.43l5.3-20.57Z"/><path class="cls-40" d="m120.88,818.42l.71-2.77c-2.62-1.43-5.4-2.58-8.3-3.43l-1.74,2.2,9.33,4Z"/><path class="cls-40" d="m162.68,877.53l-18.41-15.37c-.5,3.42-1.38,6.71-2.58,9.83l20.99,5.54Z"/><path class="cls-40" d="m140.14,871.58l1.55.41c1.2-3.12,2.08-6.41,2.58-9.83l-.4-.33-3.73,9.75Z"/><path class="cls-40" d="m148.98,897.62l-10.37-19.15c-1.52,2.62-3.28,5.06-5.26,7.3l15.64,11.85Z"/><path class="cls-40" d="m130.2,883.38l3.15,2.38c1.98-2.24,3.75-4.68,5.26-7.3l-1.46-2.69-6.95,7.61Z"/><path class="cls-40" d="m129.59,914.5l-1.61-23.63c-2.49,2-5.2,3.73-8.08,5.13l9.69,18.5Z"/><path class="cls-40" d="m118.47,893.28l1.43,2.72c2.88-1.4,5.59-3.13,8.08-5.13l-.09-1.38-9.41,3.79Z"/><path class="cls-40" d="m115.43,921.55l2.45-24.63c-2.97,1.26-6.1,2.18-9.35,2.73l6.9,21.9Z"/><path class="cls-40" d="m108.06,898.15l.47,1.5c3.25-.55,6.38-1.47,9.35-2.73l.09-.88-9.91,2.11Z"/><ellipse class="cls-3" cx="113.9" cy="852.23" rx="5.07" ry="5.27"/><path class="cls-3" d="m110.04,844.18c1.94-1.99,3.88-3.98,5.83-5.97.35.93.7,1.87,1.04,2.8,3.32-2,6.28-4.38,8.67-6.98.53-.58,1.05-1.19,1.24-1.83.19-.63-.03-1.3-.74-1.51l-.51.04c-2.21,1.96-4.43,3.91-6.64,5.87-.33-1.39-.66-2.79-.99-4.18-2.14,2.37-4.28,4.74-6.42,7.11l-1.03-3.29c-2.61,3.54-5.22,7.07-7.84,10.61,2.24-1.56,4.48-3.13,6.71-4.69.23.68.45,1.35.68,2.03Z"/><path class="cls-3" d="m1775.07,205.05c.47.01.93.03,1.4.04v-7.95l-1.4,7.91Z"/><path class="cls-3" d="m1776.46,197.13v-123.53l-2.26.69v-8.99c-4.94.21-9.76.92-14.39,2.1l3.03,6.64-15.64,4.81v-6.89c-3.02,1.43-5.92,3.08-8.68,4.91l2.84,2.44-12.18,10.93-1.89-4.09c-2.97,3.02-5.68,6.31-8.07,9.83l2.97.99-7.12,14.73-2.8-2.61c-1.7,4.22-2.99,8.65-3.85,13.24l4.36-.17-1.48,16.3-4.03-1.65c.1,4.44.61,8.78,1.5,12.98l.64-.29,4.81,15.64h-.26c.9,1.89,1.88,3.72,2.94,5.52l1.76-3.48,13.53,9.21-6.99,5.59c2.54,2.82,5.31,5.41,8.27,7.79l.02-1.32,16.2,2.31-3.38,7.19c4.72,2.32,9.74,4.12,14.98,5.34l-1.06-4.12,16.24-2.02Zm-43.29-89.69c-1-.84-1.98-1.74-2.43-2.8-.45-1.06-.26-2.32.82-2.97l.83-.11,12.08,8c.2-2.6.4-5.21.6-7.81,4.01,3.43,8.02,6.87,12.02,10.3.29-2.08.59-4.16.88-6.24,5.04,5.33,10.08,10.67,15.13,16-3.97-1.96-7.94-3.92-11.91-5.88-.2,1.29-.4,2.58-.61,3.87-3.6-2.83-7.19-5.66-10.79-8.49-.34,1.79-.68,3.58-1.01,5.37-5.82-2.35-11.14-5.5-15.61-9.25Zm20.21,33.05c-4.66,0-8.44-3.78-8.44-8.44s3.78-8.44,8.44-8.44,8.44,3.78,8.44,8.44-3.78,8.44-8.44,8.44Z"/><path class="cls-3" d="m1747.21,39.75v32.21c4.01-1.9,8.23-3.44,12.61-4.56l-12.61-27.65Z"/><path class="cls-3" d="m1762.85,74.04l-3.03-6.64c-4.39,1.12-8.6,2.66-12.61,4.56v6.89l15.64-4.81Z"/><path class="cls-3" d="m1776.46,40.14l-2.26-4.95v30.11c.75-.03,1.5-.05,2.26-.06v-25.1Z"/><path class="cls-3" d="m1776.46,73.6v-8.36c-.75,0-1.51.03-2.26.06v8.99l2.26-.69Z"/><path class="cls-3" d="m1712.78,54.74l14.51,31.4c3.41-3.47,7.17-6.58,11.23-9.28l-25.75-22.13Z"/><path class="cls-3" d="m1741.37,79.31l-2.84-2.44c-4.06,2.7-7.83,5.81-11.23,9.28l1.89,4.09,12.18-10.93Z"/><path class="cls-3" d="m1686.44,85.08l25.83,24.02c1.86-4.63,4.19-9.03,6.96-13.11l-32.79-10.9Z"/><path class="cls-3" d="m1722.2,96.97l-2.97-.99c-2.77,4.08-5.1,8.48-6.96,13.11l2.8,2.61,7.12-14.73Z"/><path class="cls-3" d="m1707.23,135.16c0-4.39.42-8.67,1.2-12.83l-33.3,1.3,32.15,13.18c-.01-.55-.04-1.09-.04-1.64h0Z"/><path class="cls-3" d="m1712.78,122.16l-4.36.17c-.77,4.16-1.2,8.45-1.2,12.83h0c0,.55.03,1.1.04,1.64l4.03,1.65,1.48-16.3Z"/><path class="cls-3" d="m1675.12,165.13h38.85c-2.3-4.84-4.05-9.98-5.2-15.35l-33.65,15.35Z"/><path class="cls-3" d="m1709.41,149.49l-.64.29c1.14,5.37,2.9,10.51,5.2,15.35h.26l-4.81-15.64Z"/><path class="cls-3" d="m1701.66,200.81l23.55-18.84c-3.13-3.47-5.91-7.27-8.3-11.32l-15.25,30.16Z"/><path class="cls-3" d="m1718.66,167.17l-1.76,3.48c2.39,4.05,5.17,7.84,8.3,11.32l6.99-5.59-13.53-9.21Z"/><path class="cls-3" d="m1733.04,226.12l13.27-28.19c-4.59-2.26-8.88-5.01-12.83-8.17l-.44,36.37Z"/><path class="cls-3" d="m1733.49,188.43l-.02,1.32c3.95,3.17,8.25,5.92,12.83,8.17l3.38-7.19-16.2-2.31Z"/><path class="cls-3" d="m1769.66,235.64l5.41-30.59c-4.73-.14-9.33-.75-13.78-1.78l8.37,32.37Z"/><path class="cls-3" d="m1760.22,199.15l1.06,4.12c4.45,1.03,9.05,1.64,13.78,1.78l1.4-7.91-16.24,2.02Z"/><circle class="cls-40" cx="1753.38" cy="132.05" r="8.44" transform="translate(1.49 282.57) rotate(-9.22)"/><path class="cls-40" d="m1749.79,111.32c3.6,2.83,7.19,5.66,10.79,8.49.2-1.29.4-2.58.61-3.87,3.97,1.96,7.94,3.92,11.91,5.88-5.04-5.33-10.08-10.67-15.13-16-.29,2.08-.59,4.16-.88,6.24-4.01-3.43-8.02-6.87-12.02-10.3-.2,2.6-.4,5.21-.6,7.81l-12.08-8-.83.11c-1.08.64-1.28,1.91-.82,2.97.45,1.06,1.44,1.96,2.43,2.8,4.47,3.75,9.79,6.9,15.61,9.25.34-1.79.68-3.58,1.01-5.37Z"/><path class="cls-40" d="m1777.17,205.1c3.82,0,7.56-.32,11.22-.91l-.77-2.34,16.06-3.29-.14,1.38c1.1-.45,2.19-.93,3.27-1.43l-2.31-4.25,15.26-5.91.15,2.15c3.12-2.41,6.03-5.07,8.69-7.96l-5.1-3.72,11.27-11.87,2.37,4.2c1.93-3.21,3.6-6.59,5-10.1l-2.51-.64,6.04-15.21.64.52c.32-2.12.54-4.27.66-6.45l-1.52.94-6.73-14.92,7.54-.95c-.91-5.87-2.56-11.49-4.83-16.78l-9.07,4.14-4.81-15.64h7.61c-1.99-2.95-4.21-5.73-6.62-8.34l-1.71,3.2-13.32-9.5,4.21-3.22c-2.59-1.85-5.31-3.53-8.15-5.01l-1.16,4.32-15.13-6.24,2.83-3.43c-2.54-.71-5.14-1.3-7.79-1.72l1.53,3.36-13.38,4.12v131.48c.24,0,.47.02.7.02h0Zm19.92-66.64c-4.54,0-8.22-3.68-8.22-8.22s3.68-8.22,8.22-8.22,8.22,3.68,8.22,8.22-3.68,8.22-8.22,8.22Zm-5.53-33.17c.56,1.71,1.12,3.42,1.68,5.13,3.47-3.7,6.94-7.39,10.41-11.09.54,2.17,1.07,4.35,1.61,6.52,3.59-3.05,7.18-6.1,10.77-9.15l.82-.07c1.14.34,1.5,1.37,1.2,2.36-.31.99-1.15,1.95-2.01,2.85-3.88,4.05-8.68,7.77-14.06,10.89-.56-1.45-1.13-2.91-1.69-4.36-3.15,3.1-6.3,6.21-9.44,9.31-.37-1.06-.73-2.11-1.1-3.17-3.63,2.44-7.25,4.88-10.88,7.31,4.23-5.51,8.47-11.03,12.7-16.54Z"/><path class="cls-40" d="m1777.17,65.22h0c3.8,0,7.52.31,11.15.89l-11.85-25.98v25.1c.24,0,.47-.02.7-.02Z"/><path class="cls-40" d="m1777.17,65.22c-.24,0-.47.02-.7.02v8.36l13.38-4.12-1.53-3.36c-3.63-.58-7.35-.89-11.15-.89h0Z"/><path class="cls-40" d="m1828.54,87.72l16.04-30.05-26.86,20.53c3.93,2.8,7.56,5.99,10.82,9.52Z"/><path class="cls-40" d="m1826.83,90.92l1.71-3.2c-3.26-3.53-6.89-6.72-10.82-9.52l-4.21,3.22,13.32,9.5Z"/><path class="cls-40" d="m1847.1,135.16c0,1.38-.05,2.75-.13,4.11l30.55-18.87-31.25,3.94c.55,3.53.84,7.14.84,10.82h0Z"/><path class="cls-40" d="m1845.46,140.21l1.52-.94c.08-1.36.13-2.73.13-4.11h0c0-3.68-.29-7.29-.84-10.82l-7.54.95,6.73,14.92Z"/><path class="cls-40" d="m1866.65,96.06h-31.49c2.44,3.61,4.54,7.46,6.28,11.5l25.22-11.5Z"/><path class="cls-40" d="m1832.37,111.7l9.07-4.14c-1.74-4.04-3.84-7.9-6.28-11.5h-7.61l4.81,15.64Z"/><path class="cls-40" d="m1818.15,41.1l-22.05,26.74c4.71,1.32,9.21,3.12,13.46,5.34l8.59-32.09Z"/><path class="cls-40" d="m1808.41,77.5l1.16-4.32c-4.25-2.23-8.75-4.02-13.46-5.34l-2.83,3.43,15.13,6.24Z"/><path class="cls-40" d="m1876.16,169.69l-29.85-23.97c-.81,5.33-2.24,10.46-4.18,15.33l34.02,8.64Z"/><path class="cls-40" d="m1839.63,160.42l2.51.64c1.94-4.87,3.37-9.99,4.18-15.33l-.64-.52-6.04,15.21Z"/><path class="cls-40" d="m1853.95,201.02l-16.82-29.87c-2.46,4.09-5.32,7.9-8.53,11.38l25.35,18.49Z"/><path class="cls-40" d="m1823.5,178.82l5.1,3.72c3.21-3.49,6.08-7.3,8.53-11.38l-2.37-4.2-11.27,11.87Z"/><path class="cls-40" d="m1822.52,227.36l-2.61-36.86c-4.04,3.12-8.43,5.82-13.1,8.01l15.71,28.85Z"/><path class="cls-40" d="m1804.49,194.26l2.31,4.25c4.67-2.19,9.06-4.88,13.1-8.01l-.15-2.15-15.26,5.91Z"/><path class="cls-40" d="m1799.57,238.35l3.97-38.41c-4.81,1.96-9.88,3.4-15.16,4.25l11.18,34.16Z"/><path class="cls-40" d="m1787.62,201.85l.77,2.34c5.27-.85,10.35-2.29,15.16-4.25l.14-1.38-16.06,3.29Z"/><circle class="cls-3" cx="1797.08" cy="130.23" r="8.22"/><path class="cls-3" d="m1790.83,117.69c3.15-3.1,6.3-6.21,9.44-9.31.56,1.45,1.13,2.91,1.69,4.36,5.38-3.12,10.18-6.84,14.06-10.89.87-.91,1.71-1.86,2.01-2.85.31-.99-.05-2.03-1.2-2.36l-.82.07c-3.59,3.05-7.18,6.1-10.77,9.15-.54-2.17-1.07-4.35-1.61-6.52-3.47,3.7-6.94,7.39-10.41,11.09-.56-1.71-1.12-3.42-1.68-5.13-4.23,5.51-8.47,11.03-12.7,16.54,3.63-2.44,7.25-4.88,10.88-7.31.37,1.06.73,2.11,1.1,3.17Z"/><path class="cls-45" d="m618.35,217.16c-.02-.14-.03-.27-.05-.38,0,0,0-.01,0-.02-.02-.18-.04-.32-.05-.38,0-.01,0-.02,0-.03.01.27.01.54,0,.81h.1Z"/><path class="cls-45" d="m618.25,217.16c0-.27,0-.54,0-.81-.49-10.6-11.93-18.93-32.2-19.21-25.93-.36-57.55.28-83.15.09-18.14-.13-26.82,9.59-27.16,18.36l2.78,1.57h139.74Z"/><path class="cls-45" d="m618.24,216.36s0,.02,0,.03c0-.02,0-.03,0-.03Z"/><path class="cls-45" d="m618.3,216.76s0,.01,0,.02c0,0,0-.01,0-.02Z"/><path class="cls-45" d="m618.25,216.39c0,.06.02.19.05.38-.02-.12-.03-.24-.05-.38Z"/><path class="cls-45" d="m618.35,217.16c-.02-.12-.03-.24-.05-.38.01.11.03.24.05.38h0Z"/><path class="cls-45" d="m475.51,216.79c-.02-.06-.03-.11-.04-.16-.01-.04-.02-.09-.03-.12-.01-.05-.02-.09-.03-.11,0-.02,0-.02,0,0,0,.02.01.06.03.11,0,.03.02.07.03.12.01.05.03.1.04.16.03.1.06.23.1.37h.16c-.04-.52-.05-1.04-.03-1.57l-25.16-14.22v15.79h25.04c-.03-.13-.07-.26-.1-.37Z"/><path class="cls-45" d="m475.47,216.63s-.02-.09-.03-.12c0,.03.02.08.03.12Z"/><path class="cls-45" d="m475.44,216.51c-.01-.05-.02-.09-.03-.11,0,.02.01.05.03.11Z"/><path class="cls-45" d="m475.51,216.79c-.01-.06-.03-.11-.04-.16.01.05.03.1.04.16Z"/><path class="cls-45" d="m475.51,216.79c.03.11.06.24.1.37h0c-.04-.15-.07-.27-.1-.37Z"/><path class="cls-45" d="m475.41,216.4s0-.02,0,0h0Z"/><path class="cls-45" d="m475.76,217.16h2.75l-2.78-1.57c-.02.53,0,1.05.03,1.57Z"/><path class="cls-45" d="m618.45,217.96c0,.06.02.13.02.18,0-.05-.01-.11-.02-.18Z"/><path class="cls-45" d="m618.39,217.52c-.01-.11-.03-.23-.05-.36h0c.01.12.03.24.05.36Z"/><path class="cls-45" d="m618.47,218.14c.07.59.05.42,0,0h0Z"/><path class="cls-45" d="m618.43,217.82s.01.1.02.14c0-.05-.01-.09-.02-.14Z"/><path class="cls-45" d="m618.43,217.78s0,.03,0,.04c0-.01,0-.02,0-.04Z"/><path class="cls-20" d="m481.82,219.04l-5.15,2.29c2.89,8.2,12.13,15.59,29.22,15.85,24.58.38,55.5-.35,80.6.08,19.12.33,31.58-9.76,31.75-20.09h-139.74l3.32,1.87Z"/><path class="cls-45" d="m618.39,217.52c.01.09.02.18.03.26-.01-.09-.02-.17-.03-.26Z"/><path class="cls-20" d="m476.68,221.33c-.36-1.02-.63-2.05-.79-3.08,0,0,0-.03-.02-.08,0-.02-.01-.04-.02-.06-.02-.06-.04-.15-.06-.24-.01-.05-.02-.1-.04-.14,0-.02-.01-.04-.02-.07-.01-.05-.03-.11-.04-.16-.02-.06-.03-.12-.05-.19,0-.02-.01-.04-.02-.06,0-.03-.01-.05-.02-.08h-25.04v15.79l26.11-11.62Z"/><path class="cls-45" d="m475.61,217.16s.01.05.02.08c0,.02.01.04.02.06.02.06.03.12.05.19.01.05.03.1.04.16,0,.02.01.05.02.07.01.05.03.1.04.14.02.08.04.16.06.24,0,.02.01.05.02.06,0,.03.01.05.02.08-.06-.36-.1-.72-.12-1.09h-.16Z"/><path class="cls-45" d="m475.61,217.16s.01.05.02.08c0-.03-.01-.05-.02-.08h0Z"/><path class="cls-45" d="m475.89,218.25s-.01-.05-.02-.08c.01.05.02.08.02.08Z"/><path class="cls-45" d="m475.69,217.5c-.02-.07-.03-.13-.05-.19.02.06.03.13.05.19Z"/><path class="cls-45" d="m475.73,217.65c-.01-.05-.03-.1-.04-.16.01.05.03.1.04.16Z"/><path class="cls-20" d="m478.51,217.16h-2.75c.03.37.07.73.12,1.09.17,1.03.43,2.06.79,3.08l5.15-2.29-3.32-1.87Z"/><path class="cls-45" d="m475.64,217.31s-.01-.04-.02-.06c0,.02.01.04.02.06Z"/><path class="cls-45" d="m475.75,217.72s-.01-.05-.02-.07c0,.02.01.05.02.07Z"/><path class="cls-45" d="m475.85,218.11c-.02-.08-.04-.17-.06-.24.02.1.05.18.06.24Z"/><path class="cls-45" d="m475.87,218.17s-.01-.04-.02-.06c0,.02.01.04.02.06Z"/><path class="cls-45" d="m475.79,217.86s-.02-.09-.04-.14c.01.05.02.09.04.14Z"/><path d="m610.3,214.45c3.22,0,3.22-5,0-5s-3.22,5,0,5h0Z"/><path class="cls-15" d="m439.04,388.3c-30.69,0-55.56,23.75-55.56,53.05v140.87c0,29.3,24.88,53.05,55.56,53.05h500.44v-246.98h-500.44Z"/><path class="cls-30" d="m1495.48,582.23v-140.87c0-29.3-24.88-53.05-55.56-53.05h-500.44v246.98h500.44c30.69,0,55.56-23.75,55.56-53.05Z"/><path class="cls-37" d="m463.78,409.11c-30.69,0-55.56,23.75-55.56,53.05v100.76c0,29.3,24.88,53.05,55.56,53.05h475.7v-206.86h-475.7Z"/><path class="cls-4" d="m1471.7,562.92v-100.76c0-29.3-24.88-53.05-55.56-53.05h-476.66v206.86h476.66c30.69,0,55.56-23.75,55.56-53.05Z"/><path class="cls-15" d="m434.09,550.17v-79.53h-16.64v-9.98h50.01v9.98h-16.64v79.53h-16.72Z"/><path class="cls-15" d="m475.81,550.17v-89.5h16.64v29.83c.34-3.36,1.2-5.86,2.6-7.5,1.39-1.65,3.31-2.47,5.76-2.47h8.36c4.56,0,8.47,1.97,11.74,5.9,3.27,3.93,4.9,8.62,4.9,14.05v49.69h-16.64v-49.69c0-2.73-.83-5.08-2.48-7.04-1.65-1.96-3.61-2.94-5.88-2.94s-4.26.98-5.9,2.94-2.46,4.3-2.46,7.04v49.69h-16.64Z"/><path class="cls-15" d="m592.48,520.34h-33.37v9.98c0,2.67.81,4.99,2.44,6.95,1.63,1.96,3.6,2.94,5.92,2.94h8.36c5.52,0,8.28-3.29,8.28-9.88h8.36c-1.3,13.24-6.85,19.86-16.64,19.86h-16.72c-4.56,0-8.47-1.95-11.74-5.85-3.27-3.9-4.9-8.57-4.9-14.01v-29.83c0-5.5,1.64-10.2,4.92-14.1,3.28-3.9,7.19-5.85,11.72-5.85h16.72c4.56,0,8.47,1.97,11.74,5.9,3.27,3.93,4.9,8.62,4.9,14.05v19.86Zm-33.37-9.98h16.72v-9.88c0-2.73-.83-5.08-2.48-7.04-1.65-1.96-3.61-2.94-5.88-2.94s-4.26.98-5.9,2.94-2.46,4.3-2.46,7.04v9.88Z"/><path class="cls-15" d="m633.54,550.17v-89.5h16.64v39.81h16.72v-39.81h16.64v89.5h-16.64v-39.81h-16.72v39.81h-16.64Z"/><path class="cls-15" d="m750.2,480.53v69.65h-16.64v-9.98c-.65,6.65-3.44,9.98-8.36,9.98h-8.36c-4.56,0-8.47-1.95-11.74-5.85-3.27-3.9-4.9-8.57-4.9-14.01v-49.79h16.64v49.79c0,2.67.81,4.99,2.44,6.95,1.63,1.96,3.6,2.94,5.92,2.94s4.29-.98,5.92-2.94c1.63-1.96,2.44-4.27,2.44-6.95v-49.79h16.64Z"/><path class="cls-15" d="m766.84,550.17v-69.65h16.64v9.98c.34-3.36,1.2-5.86,2.6-7.5,1.39-1.65,3.31-2.47,5.76-2.47h8.36c4.56,0,8.47,1.97,11.74,5.9,3.27,3.93,4.9,8.62,4.9,14.05v49.69h-16.64v-49.69c0-2.73-.83-5.08-2.48-7.04-1.65-1.96-3.61-2.94-5.88-2.94s-4.26.98-5.9,2.94-2.46,4.3-2.46,7.04v49.69h-16.64Z"/><path class="cls-15" d="m883.5,480.53v79.62c0,5.41-1.65,10.07-4.94,13.99-3.3,3.92-7.2,5.87-11.7,5.87h-16.72c-9.82,0-15.37-6.62-16.64-19.86h8.36c.39,6.59,3.15,9.88,8.28,9.88h8.36c2.27,0,4.23-.97,5.88-2.91,1.65-1.94,2.48-4.27,2.48-6.97v-19.95c-.65,6.65-3.44,9.98-8.36,9.98h-8.36c-4.56,0-8.47-1.95-11.74-5.85-3.27-3.9-4.9-8.57-4.9-14.01v-29.83c0-5.5,1.64-10.2,4.92-14.1,3.28-3.9,7.19-5.85,11.72-5.85h33.37Zm-16.64,9.98h-8.36c-2.29,0-4.26.98-5.9,2.94s-2.46,4.3-2.46,7.04v29.83c0,2.67.81,4.99,2.44,6.95,1.63,1.96,3.6,2.94,5.92,2.94s4.29-.98,5.92-2.94c1.63-1.96,2.44-4.27,2.44-6.95v-39.81Z"/><path class="cls-15" d="m916.79,550.17h-16.64v-69.65h16.64v19.95c.65-6.65,2.37-11.64,5.16-14.96,2.79-3.32,6.64-4.99,11.56-4.99h8.28v19.95h-16.64c-2.29,0-4.26.97-5.9,2.91-1.64,1.94-2.46,4.27-2.46,6.97v39.81Z"/><path class="cls-15" d="m958.51,560.15c.39,6.59,3.15,9.88,8.28,9.88h8.36c2.27,0,4.23-.97,5.88-2.91,1.65-1.94,2.48-4.27,2.48-6.97v-19.95c-.65,6.65-3.44,9.98-8.36,9.98h-8.36c-4.56,0-8.47-1.95-11.74-5.85-3.27-3.9-4.9-8.57-4.9-14.01v-49.79h16.64v49.79c0,2.67.81,4.99,2.44,6.95,1.63,1.96,3.6,2.94,5.92,2.94s4.29-.98,5.92-2.94c1.63-1.96,2.44-4.27,2.44-6.95v-49.79h16.64v79.62c0,5.41-1.65,10.07-4.94,13.99s-7.2,5.87-11.7,5.87h-16.72c-9.82,0-15.37-6.62-16.64-19.86h8.36Z"/><path class="cls-15" d="m1057.87,460.67h16.72c4.56,0,8.47,1.96,11.74,5.87,3.27,3.92,4.9,8.58,4.9,13.98v49.79c0,5.38-1.63,10.03-4.9,13.96-3.27,3.93-7.18,5.9-11.74,5.9h-16.72c-4.56,0-8.47-1.95-11.74-5.85-3.27-3.9-4.9-8.57-4.9-14.01v-49.79c0-5.44,1.63-10.11,4.9-14.01,3.27-3.9,7.18-5.85,11.74-5.85Zm0,19.86v49.79c0,2.67.81,4.99,2.44,6.95,1.63,1.96,3.6,2.94,5.92,2.94s4.29-.98,5.92-2.94c1.63-1.96,2.44-4.27,2.44-6.95v-49.79c0-2.7-.83-5.03-2.48-6.97-1.65-1.94-3.61-2.91-5.88-2.91s-4.26.97-5.9,2.91c-1.64,1.94-2.46,4.27-2.46,6.97Z"/><path class="cls-15" d="m1149.52,500.48h-8.28c-.65-6.65-3.44-9.98-8.36-9.98-2.29,0-4.26.98-5.9,2.94s-2.46,4.3-2.46,7.04v29.83c0,2.67.81,4.99,2.44,6.95,1.63,1.96,3.6,2.94,5.92,2.94,4.92,0,7.71-3.29,8.36-9.88h8.28c-.68,13.24-6.23,19.86-16.64,19.86h-8.36c-4.56,0-8.47-1.95-11.74-5.85-3.27-3.9-4.9-8.57-4.9-14.01v-29.83c0-5.5,1.64-10.2,4.92-14.1,3.28-3.9,7.19-5.85,11.72-5.85h8.36c10.47,0,16.02,6.65,16.64,19.95Z"/><path class="cls-15" d="m1174.6,460.67h16.64v19.86h8.36v9.98h-8.36v39.81c0,3.2.89,5.65,2.66,7.34,1.77,1.69,3.41,2.54,4.92,2.54h.78v9.98h-8.36c-4.58,0-8.5-1.95-11.76-5.85-3.26-3.9-4.88-8.57-4.88-14.01v-39.81h-8.36v-9.98h8.36v-19.86Z"/><path class="cls-15" d="m1232.9,480.53h16.72c4.56,0,8.47,1.97,11.74,5.9,3.27,3.93,4.9,8.62,4.9,14.05v29.83c0,5.38-1.63,10.03-4.9,13.96-3.27,3.93-7.18,5.9-11.74,5.9h-16.72c-4.56,0-8.47-1.95-11.74-5.85-3.27-3.9-4.9-8.57-4.9-14.01v-29.83c0-5.5,1.64-10.2,4.92-14.1,3.28-3.9,7.19-5.85,11.72-5.85Zm0,19.95v29.83c0,2.67.81,4.99,2.44,6.95,1.63,1.96,3.6,2.94,5.92,2.94s4.29-.98,5.92-2.94c1.63-1.96,2.44-4.27,2.44-6.95v-29.83c0-2.73-.83-5.08-2.48-7.04s-3.61-2.94-5.88-2.94-4.26.98-5.9,2.94-2.46,4.3-2.46,7.04Z"/><path class="cls-15" d="m1282.9,480.53h16.64v9.98c0-3.36.7-5.86,2.11-7.5,1.41-1.65,3.49-2.47,6.25-2.47h8.36c4.56,0,8.47,1.97,11.74,5.9,3.27,3.93,4.9,8.62,4.9,14.05v29.83c0,5.44-1.63,10.11-4.9,14.01-3.27,3.9-7.18,5.85-11.74,5.85h-16.72v19.86h-16.64v-89.5Zm16.64,59.67h8.36c2.27,0,4.23-.97,5.88-2.91,1.65-1.94,2.48-4.26,2.48-6.97v-29.83c0-2.73-.83-5.07-2.48-7.02-1.65-1.94-3.61-2.91-5.88-2.91-2.29-.03-4.26.93-5.9,2.89s-2.46,4.3-2.46,7.04v39.72Z"/><path class="cls-15" d="m1399.56,480.53v69.65h-16.64v-9.98c-.65,6.65-3.44,9.98-8.36,9.98h-8.36c-4.56,0-8.47-1.95-11.74-5.85-3.27-3.9-4.9-8.57-4.9-14.01v-49.79h16.64v49.79c0,2.67.81,4.99,2.44,6.95,1.63,1.96,3.6,2.94,5.92,2.94s4.29-.98,5.92-2.94c1.63-1.96,2.44-4.27,2.44-6.95v-49.79h16.64Z"/><path class="cls-15" d="m1457.85,500.48h-8.28c-.73-6.65-3.36-9.98-7.89-9.98-2.94,0-5.16.69-6.64,2.07-1.48,1.38-2.23,3.44-2.23,6.18s4.05,6.87,12.15,12.03c6.59,4.23,10.39,7.73,11.39,10.51,1,2.78,1.5,5.74,1.5,8.88,0,5.53-1.63,10.25-4.9,14.15-3.27,3.9-7.18,5.85-11.74,5.85h-8.36c-11.1,0-16.64-6.62-16.64-19.86h8.36c.65,6.62,3.26,9.93,7.81,9.93,2.94,0,5.16-.7,6.64-2.1,1.48-1.4,2.23-3.46,2.23-6.2s-4.04-6.81-12.11-12.03c-6.62-4.2-10.43-7.69-11.43-10.49-1-2.8-1.5-5.75-1.5-8.86,0-5.56,1.64-10.29,4.92-14.19,3.28-3.9,7.19-5.85,11.72-5.85h8.36c10.42,0,15.97,6.65,16.64,19.95Z"/><polygon class="cls-44" points="634.52 337.22 574.17 306.29 574.17 337.34 634.3 337.34 634.52 337.22"/><polygon class="cls-44" points="554.52 327.18 554.52 337.34 573.15 337.34 554.52 327.18"/><polygon class="cls-44" points="574.17 337.34 573.15 337.34 574.17 337.9 574.17 337.34"/><polygon class="cls-43" points="574.55 338.11 574.17 338.33 574.17 370.89 634.3 337.34 574.17 337.34 574.17 337.9 574.55 338.11"/><polygon class="cls-43" points="574.17 338.33 574.17 337.9 573.15 337.34 554.52 337.34 554.52 350 574.17 338.33"/><polygon class="cls-44" points="574.17 337.9 574.17 338.33 574.55 338.11 574.17 337.9"/><path d="m619,335.98c3.22,0,3.22-5,0-5s-3.22,5,0,5h0Z"/><polygon class="cls-44" points="1953.35 961.51 1866.01 909.42 1866.01 961.72 1953.04 961.72 1953.35 961.51"/><polygon class="cls-44" points="1837.57 944.6 1837.57 961.72 1864.52 961.72 1837.57 944.6"/><polygon class="cls-44" points="1866.01 961.72 1864.52 961.72 1866.01 962.66 1866.01 961.72"/><polygon class="cls-43" points="1866.55 963.01 1866.01 963.38 1866.01 1018.23 1953.04 961.72 1866.01 961.72 1866.01 962.66 1866.55 963.01"/><polygon class="cls-43" points="1866.01 963.38 1866.01 962.66 1864.52 961.72 1837.57 961.72 1837.57 983.05 1866.01 963.38"/><polygon class="cls-44" points="1866.01 962.66 1866.01 963.38 1866.55 963.01 1866.01 962.66"/><path class="cls-45" d="m73.25,646.8c-.02-.14-.03-.27-.05-.38,0,0,0-.01,0-.02-.02-.18-.04-.32-.05-.38,0-.01,0-.02,0-.03.01.27.01.54,0,.81h.1Z"/><path class="cls-45" d="m73.15,646.8c0-.27,0-.54,0-.81-.49-10.6-11.93-18.93-32.2-19.21-25.93-.36-57.55.28-83.15.09-18.14-.13-26.82,9.59-27.16,18.36l2.78,1.57H73.15Z"/><path class="cls-45" d="m73.15,646s0,.02,0,.03c0-.02,0-.03,0-.03Z"/><path class="cls-45" d="m73.2,646.4s0,.01,0,.02c0,0,0-.01,0-.02Z"/><path class="cls-45" d="m73.15,646.02c0,.06.02.19.05.38-.02-.12-.03-.24-.05-.38Z"/><path class="cls-45" d="m73.25,646.8c-.02-.12-.03-.24-.05-.38.01.11.03.24.05.38h0Z"/><path class="cls-45" d="m73.35,647.6c0,.06.02.13.02.18,0-.05-.01-.11-.02-.18Z"/><path class="cls-45" d="m73.29,647.16c-.01-.11-.03-.23-.05-.36h0c.01.12.03.24.05.36Z"/><path class="cls-45" d="m73.37,647.78c.07.59.05.42,0,0h0Z"/><path class="cls-45" d="m73.33,647.46s.01.1.02.14c0-.05-.01-.09-.02-.14Z"/><path class="cls-45" d="m73.33,647.42s0,.03,0,.04c0-.01,0-.02,0-.04Z"/><path class="cls-20" d="m-63.27,648.67l-5.15,2.29c2.89,8.2,12.13,15.59,29.22,15.85,24.58.38,55.5-.35,80.6.08,19.12.33,31.58-9.76,31.75-20.09H-66.59l3.32,1.87Z"/><path class="cls-45" d="m73.29,647.16c.01.09.02.18.03.26-.01-.09-.02-.17-.03-.26Z"/><path d="m65.2,644.09c3.22,0,3.22-5,0-5s-3.22,5,0,5h0Z"/><polygon class="cls-44" points="958.52 788.14 925.44 771.29 925.44 788.21 958.4 788.21 958.52 788.14"/><polygon class="cls-44" points="914.67 782.67 914.67 788.21 924.88 788.21 914.67 782.67"/><polygon class="cls-44" points="925.44 788.21 924.88 788.21 925.44 788.51 925.44 788.21"/><polygon class="cls-43" points="925.65 788.62 925.44 788.74 925.44 806.48 958.4 788.21 925.44 788.21 925.44 788.51 925.65 788.62"/><polygon class="cls-43" points="925.44 788.74 925.44 788.51 924.88 788.21 914.67 788.21 914.67 795.1 925.44 788.74"/><polygon class="cls-44" points="925.44 788.51 925.44 788.74 925.65 788.62 925.44 788.51"/><path d="m949,787.28c1.93,0,1.93-3,0-3s-1.93,3,0,3h0Z"/><path class="cls-45" d="m1238.41,825.43c-.01-.08-.02-.15-.03-.21,0,0,0,0,0-.01-.02-.1-.03-.18-.03-.21,0,0,0-.01,0-.02,0,.15,0,.3,0,.45h.06Z"/><path class="cls-45" d="m1238.34,825.43c0-.15,0-.3,0-.45-.32-5.87-7.76-10.47-20.94-10.63-16.86-.2-37.42.15-54.07.05-11.8-.07-17.44,5.31-17.66,10.16l1.81.87h90.87Z"/><path class="cls-45" d="m1238.34,824.98s0,.01,0,.02c0,0,0-.02,0-.02Z"/><path class="cls-45" d="m1238.37,825.21s0,0,0,.01c0,0,0,0,0-.01Z"/><path class="cls-45" d="m1238.34,825s.02.11.03.21c0-.07-.02-.14-.03-.21Z"/><path class="cls-45" d="m1238.41,825.43c0-.07-.02-.14-.03-.21,0,.06.02.14.03.21h0Z"/><path class="cls-45" d="m1145.53,825.22s-.02-.06-.03-.09c0-.02-.01-.05-.02-.07,0-.03-.02-.05-.02-.06,0-.01,0-.01,0,0,0,.01,0,.03.02.06,0,.02.01.04.02.07,0,.03.02.06.03.09.02.06.04.13.06.21h.1c-.03-.29-.04-.58-.02-.87l-16.36-7.87v8.74h16.28c-.02-.07-.04-.14-.06-.21Z"/><path class="cls-45" d="m1145.5,825.14s-.01-.05-.02-.07c0,.02.01.04.02.07Z"/><path class="cls-45" d="m1145.48,825.07s-.01-.05-.02-.06c0,0,0,.03.02.06Z"/><path class="cls-45" d="m1145.53,825.22s-.02-.06-.03-.09c0,.03.02.05.03.09Z"/><path class="cls-45" d="m1145.53,825.22c.02.06.04.13.06.21h0c-.02-.08-.05-.15-.06-.21Z"/><path class="cls-45" d="m1145.46,825.01s0-.01,0,0h0Z"/><path class="cls-45" d="m1145.69,825.43h1.79l-1.81-.87c-.01.29,0,.58.02.87Z"/><path class="cls-45" d="m1238.47,825.87s.01.07.02.1c0-.03,0-.06-.02-.1Z"/><path class="cls-45" d="m1238.44,825.63c0-.06-.02-.13-.03-.2h0c0,.06.02.13.03.2Z"/><path class="cls-45" d="m1238.49,825.97c.05.32.03.23,0,0h0Z"/><path class="cls-45" d="m1238.46,825.79s0,.05.01.08c0-.03,0-.05-.01-.08Z"/><path class="cls-45" d="m1238.46,825.77s0,.01,0,.02c0,0,0-.01,0-.02Z"/><path class="cls-20" d="m1149.63,826.47l-3.35,1.27c1.88,4.54,7.89,8.63,19,8.77,15.98.21,36.09-.19,52.41.04,12.44.18,20.53-5.4,20.64-11.12h-90.87l2.16,1.04Z"/><path class="cls-45" d="m1238.44,825.63c0,.05.02.1.02.15,0-.05-.01-.1-.02-.15Z"/><path class="cls-20" d="m1146.29,827.73c-.23-.56-.41-1.13-.51-1.7,0,0,0-.02-.01-.04,0-.01,0-.02-.01-.04-.01-.04-.02-.08-.04-.13,0-.03-.02-.05-.02-.08,0-.01,0-.02-.01-.04,0-.03-.02-.06-.03-.09-.01-.03-.02-.07-.03-.1,0-.01,0-.02-.01-.04,0-.01,0-.03-.01-.04h-16.28v8.74l16.98-6.43Z"/><path class="cls-45" d="m1145.59,825.43s0,.03.01.04c0,.01,0,.02.01.04,0,.03.02.07.03.1,0,.03.02.06.03.09,0,.01,0,.03.01.04,0,.03.02.05.02.08.01.04.03.09.04.13,0,.01,0,.03.01.04,0,.02,0,.03.01.04-.04-.2-.06-.4-.08-.6h-.1Z"/><path class="cls-45" d="m1145.59,825.43s0,.03.01.04c0-.02,0-.03-.01-.04h0Z"/><path class="cls-45" d="m1145.77,826.03s0-.03-.01-.04c0,.03.01.04.01.04Z"/><path class="cls-45" d="m1145.65,825.61s-.02-.07-.03-.1c.01.03.02.07.03.1Z"/><path class="cls-45" d="m1145.67,825.7s-.02-.06-.03-.09c0,.03.02.06.03.09Z"/><path class="cls-20" d="m1147.48,825.43h-1.79c.02.2.04.4.08.6.11.57.28,1.14.51,1.7l3.35-1.27-2.16-1.04Z"/><path class="cls-45" d="m1145.62,825.51s0-.02-.01-.04c0,.01,0,.02.01.04Z"/><path class="cls-45" d="m1145.68,825.74s0-.03-.01-.04c0,.01,0,.03.01.04Z"/><path class="cls-45" d="m1145.75,825.95s-.03-.09-.04-.13c.02.05.03.1.04.13Z"/><path class="cls-45" d="m1145.76,825.99s0-.02-.01-.04c0,.01,0,.02.01.04Z"/><path class="cls-45" d="m1145.71,825.82s-.02-.05-.02-.08c0,.03.02.05.02.08Z"/><path d="m1228.87,821.77c1.93,0,1.93-3,0-3s-1.93,3,0,3h0Z"/><path d="m1228.57,831.12c1.93,0,1.93-3,0-3s-1.93,3,0,3h0Z"/><ellipse class="cls-10" cx="330.27" cy="839.22" rx="9.25" ry="3.93"/><polygon class="cls-10" points="322.78 838.97 317 841.65 317 836.49 322.78 838.97"/><path class="cls-9" d="m321.21,838.89l18.22.08s-.13,1.59-.5,1.57-.87,1.5-4.43,2.18-6.25.41-7.16.26-2.66-.39-4.12-1.16-2.1-1.53-2.18-2.05.17-.87.17-.87Z"/><polygon class="cls-12" points="321.21 838.89 317 838.89 317 841.65 322.78 838.97 321.21 838.89"/><polygon class="cls-44" points="1260.52 331.9 1250.22 324.29 1250.22 331.93 1260.48 331.93 1260.52 331.9"/><polygon class="cls-44" points="1246.86 329.43 1246.86 331.93 1250.04 331.93 1246.86 329.43"/><polygon class="cls-44" points="1250.22 331.93 1250.04 331.93 1250.22 332.07 1250.22 331.93"/><polygon class="cls-43" points="1250.28 332.12 1250.22 332.18 1250.22 340.19 1260.48 331.93 1250.22 331.93 1250.22 332.07 1250.28 332.12"/><polygon class="cls-43" points="1250.22 332.18 1250.22 332.07 1250.04 331.93 1246.86 331.93 1246.86 335.05 1250.22 332.18"/><polygon class="cls-44" points="1250.22 332.07 1250.22 332.18 1250.28 332.12 1250.22 332.07"/><ellipse class="cls-6" cx="1749.09" cy="593.87" rx="8.39" ry="3.57"/><polygon class="cls-6" points="1735.18 591.01 1742.3 594.07 1735.68 596.73 1735.18 591.01"/><path class="cls-11" d="m1757.48,593.87c-.31.68-2.22.32-8.36.39-5.62.06-8.03.41-8.42-.39-.39-.79,1.54-2.05,1.66-2.13,2.58-1.66,6.73-1.44,6.73-1.44,0,0,2.37.02,3.72.26,2.61.47,5.07,2.45,4.67,3.31Z"/><polygon class="cls-11" points="1742.8 594.39 1735.47 594.24 1735.18 591.01 1742.8 594.39"/><ellipse class="cls-1" cx="1665.88" cy="258.55" rx="8.57" ry="17.32" transform="translate(524.85 1499.53) rotate(-56.22)"/><polygon class="cls-44" points="1718.46 288.58 1631.12 236.49 1631.12 288.79 1718.15 288.79 1718.46 288.58"/><polygon class="cls-1" points="1602.68 271.67 1602.68 288.79 1629.64 288.79 1602.68 271.67"/><polygon class="cls-44" points="1631.12 288.79 1629.64 288.79 1631.12 289.73 1631.12 288.79"/><polygon class="cls-43" points="1631.67 290.08 1631.12 290.45 1631.12 345.3 1718.15 288.79 1631.12 288.79 1631.12 289.73 1631.67 290.08"/><polygon class="cls-23" points="1631.12 290.45 1631.12 289.73 1629.64 288.79 1602.68 288.79 1602.68 310.12 1631.12 290.45"/><polygon class="cls-43" points="1631.12 289.73 1631.12 290.45 1631.67 290.08 1631.12 289.73"/><path d="m1699.13,283.87c3.22,0,3.22-5,0-5s-3.22,5,0,5h0Z"/><ellipse class="cls-28" cx="225.49" cy="960.26" rx="54.41" ry="11.68"/><path class="cls-45" d="m340.25,998.5c-.03-.26-.05-.51-.07-.72,0-.01,0-.03,0-.04-.04-.35-.06-.61-.07-.72,0-.02,0-.04,0-.05.02.51.02,1.02,0,1.53h.15Z"/><path class="cls-45" d="m340.11,998.5c0-.51,0-1.02,0-1.53-.75-20.15-18.38-35.96-49.59-36.49-39.94-.69-88.63.53-128.06.17-27.94-.25-41.31,18.21-41.83,34.87l4.28,2.98h215.21Z"/><path class="cls-45" d="m340.1,996.97s0,.04,0,.05c0-.03,0-.05,0-.05Z"/><path class="cls-45" d="m340.18,997.74s0,.03,0,.04c0-.01,0-.03,0-.04Z"/><path class="cls-45" d="m340.1,997.02c.01.11.04.37.07.72-.02-.22-.05-.46-.07-.72Z"/><path class="cls-45" d="m340.25,998.5c-.02-.22-.05-.46-.07-.72.02.22.05.46.07.72h0Z"/><path class="cls-28" d="m120.28,997.79c-.02-.11-.04-.21-.06-.3-.02-.09-.03-.16-.05-.23-.02-.1-.04-.17-.04-.2,0-.04,0-.04,0,0,0,.04.02.11.04.2.01.06.03.14.05.23.02.09.04.19.06.3.04.19.09.43.15.71h.24c-.06-.99-.08-1.98-.05-2.98l-38.75-27.01v29.99h38.56c-.05-.25-.1-.5-.15-.71Z"/><path class="cls-45" d="m120.21,997.49c-.02-.09-.03-.17-.05-.23.01.06.03.14.05.23Z"/><path class="cls-45" d="m120.16,997.26c-.02-.1-.03-.17-.04-.2,0,.03.02.1.04.2Z"/><path class="cls-45" d="m120.28,997.79c-.02-.11-.04-.21-.06-.3.02.09.04.19.06.3Z"/><path class="cls-45" d="m120.28,997.79c.04.21.1.46.15.71h0c-.06-.28-.11-.52-.15-.71Z"/><path class="cls-45" d="m120.12,997.06s0-.04,0,0h0Z"/><path class="cls-45" d="m120.67,998.5h4.23l-4.28-2.98c-.03,1,0,2,.05,2.98Z"/><path class="cls-45" d="m340.41,1000.02c.01.12.02.24.04.35-.01-.1-.02-.22-.04-.35Z"/><path class="cls-45" d="m340.32,999.18c-.02-.21-.04-.43-.07-.68h0c.02.22.05.45.07.68Z"/><path class="cls-45" d="m340.45,1000.37c.11,1.11.08.79,0,0h0Z"/><path class="cls-45" d="m340.38,999.75c0,.09.02.19.03.27,0-.09-.02-.18-.03-.27Z"/><path class="cls-45" d="m340.38,999.68s0,.05,0,.07c0-.03,0-.05,0-.07Z"/><path class="cls-20" d="m130,1002.06l-7.93,4.35c4.45,15.57,18.69,29.61,45.01,30.11,37.86.72,85.47-.67,124.14.15,29.45.62,48.63-18.55,48.89-38.17H124.89l5.11,3.56Z"/><path class="cls-45" d="m340.32,999.18c.02.18.04.35.05.5-.02-.16-.03-.33-.05-.5Z"/><path class="cls-19" d="m122.07,1006.41c-.55-1.93-.96-3.89-1.22-5.84,0,0-.01-.06-.03-.15,0-.04-.02-.08-.03-.12-.03-.12-.06-.28-.1-.46-.02-.1-.04-.18-.06-.27,0-.04-.02-.09-.03-.13-.02-.1-.04-.2-.06-.29-.02-.12-.05-.24-.07-.36,0-.04-.02-.08-.03-.12-.01-.05-.02-.1-.03-.15h-38.56v29.99l40.21-22.08Z"/><path class="cls-45" d="m120.42,998.5c.01.05.02.1.03.15,0,.04.02.08.03.12.02.11.05.23.07.36.02.1.04.2.06.29,0,.04.02.09.03.13.02.09.04.19.06.27.03.14.06.3.1.46,0,.05.02.09.03.12.01.05.02.1.03.15-.09-.68-.15-1.37-.19-2.07h-.24Z"/><path class="cls-45" d="m120.42,998.5c.01.05.02.1.03.15-.01-.05-.02-.1-.03-.15h0Z"/><path class="cls-45" d="m120.86,1000.57c-.01-.05-.02-.1-.03-.15.02.09.03.15.03.15Z"/><path class="cls-45" d="m120.56,999.14c-.03-.12-.05-.25-.07-.36.03.12.05.24.07.36Z"/><path class="cls-45" d="m120.62,999.43c-.02-.1-.04-.19-.06-.29.02.09.04.19.06.29Z"/><path class="cls-20" d="m124.89,998.5h-4.23c.04.69.1,1.39.19,2.07.25,1.96.67,3.91,1.22,5.84l7.93-4.35-5.11-3.56Z"/><path class="cls-45" d="m120.48,998.78s-.02-.08-.03-.12c0,.04.02.08.03.12Z"/><path class="cls-45" d="m120.65,999.56s-.02-.09-.03-.13c0,.04.02.09.03.13Z"/><path class="cls-45" d="m120.8,1000.29c-.03-.16-.07-.32-.1-.46.04.18.07.34.1.46Z"/><path class="cls-45" d="m120.82,1000.42s-.02-.08-.03-.12c0,.04.02.08.03.12Z"/><path class="cls-45" d="m120.7,999.83c-.02-.09-.04-.18-.06-.27.02.09.04.18.06.27Z"/><path d="m328.12,985.81c3.22,0,3.22-5,0-5s-3.22,5,0,5h0Z"/><path class="cls-21" d="m1630.68,805.96c-9.59-8.74-18.6-17.37-27-27.31,3.16-.5,6.75,1.16,10.12.51,7.63,6.39,15.13,13.72,22.38,20.59-1.81,2.09-3.63,4.17-5.49,6.22Z"/><polygon class="cls-21" points="1602.78 814.84 1584.41 797.71 1584.41 817.08 1602.78 817.08 1602.78 814.84"/><path class="cls-38" d="m1604.66,817.08h50.28v-8.36c0-7.95-6.44-14.39-14.39-14.39h-23.37c-7.95,0-14.39,6.44-14.39,14.39v6.11l2.14,1.99-.26.25Z"/><polygon class="cls-38" points="1604.66 817.08 1604.92 816.83 1602.78 814.84 1602.78 817.08 1604.66 817.08"/><polygon class="cls-26" points="1602.78 818.87 1602.78 817.08 1584.41 817.08 1584.41 836.45 1602.78 818.87"/><path class="cls-18" d="m1602.78,818.87v8.54c0,7.95,6.44,14.39,14.39,14.39h23.37c7.95,0,14.39-6.44,14.39-14.39v-10.34h-50.28l-1.87,1.79Z"/><polygon class="cls-18" points="1602.78 817.08 1602.78 818.87 1604.66 817.08 1602.78 817.08"/><path d="m1649.62,813.47c3.22,0,3.22-5,0-5s-3.22,5,0,5h0Z"/><path class="cls-21" d="m658.86,45.56c-9.59-8.74-18.6-17.37-27-27.31,3.16-.5,6.75,1.16,10.12.51,7.63,6.39,15.13,13.72,22.38,20.59-1.81,2.09-3.63,4.17-5.49,6.22Z"/><polygon class="cls-21" points="630.96 54.44 612.59 37.31 612.59 56.68 630.96 56.68 630.96 54.44"/><path class="cls-38" d="m632.83,56.68h50.28v-8.36c0-7.95-6.44-14.39-14.39-14.39h-23.37c-7.95,0-14.39,6.44-14.39,14.39v6.11l2.14,1.99-.26.25Z"/><polygon class="cls-38" points="632.83 56.68 633.1 56.43 630.96 54.44 630.96 56.68 632.83 56.68"/><polygon class="cls-26" points="630.96 58.48 630.96 56.68 612.59 56.68 612.59 76.06 630.96 58.48"/><path class="cls-18" d="m630.96,58.48v8.54c0,7.95,6.44,14.39,14.39,14.39h23.37c7.95,0,14.39-6.44,14.39-14.39v-10.34h-50.28l-1.87,1.79Z"/><polygon class="cls-18" points="630.96 56.68 630.96 58.48 632.83 56.68 630.96 56.68"/><path d="m677.8,53.07c3.22,0,3.22-5,0-5s-3.22,5,0,5h0Z"/><ellipse class="cls-1" cx="221.55" cy="709.73" rx="8.57" ry="17.32" transform="translate(-491.56 499.32) rotate(-56.22)"/><polygon class="cls-44" points="274.13 739.77 186.8 687.67 186.8 739.97 273.82 739.97 274.13 739.77"/><polygon class="cls-1" points="158.35 722.85 158.35 739.97 185.31 739.97 158.35 722.85"/><polygon class="cls-44" points="186.8 739.97 185.31 739.97 186.8 740.92 186.8 739.97"/><polygon class="cls-43" points="187.34 741.26 186.8 741.64 186.8 796.48 273.82 739.97 186.8 739.97 186.8 740.92 187.34 741.26"/><polygon class="cls-23" points="186.8 741.64 186.8 740.92 185.31 739.97 158.35 739.97 158.35 761.3 186.8 741.64"/><polygon class="cls-43" points="186.8 740.92 186.8 741.64 187.34 741.26 186.8 740.92"/><path d="m254.81,735.06c3.22,0,3.22-5,0-5s-3.22,5,0,5h0Z"/><ellipse class="cls-28" cx="1343.56" cy="61.6" rx="42.52" ry="11.68"/><path class="cls-45" d="m1433.23,99.84c-.02-.26-.04-.51-.06-.72,0-.01,0-.03,0-.04-.03-.35-.05-.61-.06-.72,0-.02,0-.04,0-.05.01.51.01,1.02,0,1.53h.12Z"/><path class="cls-45" d="m1433.11,99.84c0-.51,0-1.02,0-1.53-.58-20.15-14.36-35.96-38.75-36.49-31.21-.69-69.26.53-100.06.17-21.83-.25-32.28,18.21-32.69,34.87l3.34,2.98h168.16Z"/><path class="cls-45" d="m1433.1,98.31s0,.04,0,.05c0-.03,0-.05,0-.05Z"/><path class="cls-45" d="m1433.16,99.08s0,.03,0,.04c0-.01,0-.03,0-.04Z"/><path class="cls-45" d="m1433.11,98.36c0,.11.03.37.06.72-.02-.22-.04-.46-.06-.72Z"/><path class="cls-45" d="m1433.23,99.84c-.02-.22-.04-.46-.06-.72.02.22.04.46.06.72h0Z"/><path class="cls-28" d="m1261.34,99.13c-.02-.11-.04-.21-.05-.3-.01-.09-.03-.16-.04-.23-.02-.1-.03-.17-.03-.2,0-.04,0-.04,0,0,0,.04.02.11.03.2.01.06.02.14.04.23.01.09.03.19.05.3.03.19.07.43.12.71h.19c-.05-.99-.07-1.98-.04-2.98l-30.28-27.01v29.99h30.13c-.04-.25-.08-.5-.12-.71Z"/><path class="cls-45" d="m1261.29,98.83c-.01-.09-.03-.17-.04-.23.01.06.02.14.04.23Z"/><path class="cls-45" d="m1261.25,98.6c-.02-.1-.03-.17-.03-.2,0,.03.02.1.03.2Z"/><path class="cls-45" d="m1261.34,99.13c-.02-.11-.03-.21-.05-.3.01.09.03.19.05.3Z"/><path class="cls-45" d="m1261.34,99.13c.04.21.07.46.12.71h0c-.05-.28-.08-.52-.12-.71Z"/><path class="cls-45" d="m1261.22,98.39s0-.04,0,0h0Z"/><path class="cls-45" d="m1261.65,99.84h3.3l-3.34-2.98c-.02,1,0,2,.04,2.98Z"/><path class="cls-45" d="m1433.35,101.36c0,.12.02.24.03.35,0-.1-.02-.22-.03-.35Z"/><path class="cls-45" d="m1433.28,100.52c-.02-.21-.03-.43-.05-.68h0c.02.22.04.45.05.68Z"/><path class="cls-45" d="m1433.38,101.7c.09,1.11.06.79,0,0h0Z"/><path class="cls-45" d="m1433.33,101.09c0,.09.02.19.02.27,0-.09-.01-.18-.02-.27Z"/><path class="cls-45" d="m1433.32,101.02s0,.05,0,.07c0-.03,0-.05,0-.07Z"/><path class="cls-20" d="m1268.94,103.4l-6.19,4.35c3.48,15.57,14.6,29.61,35.17,30.11,29.58.72,66.78-.67,97,.15,23.01.62,38-18.55,38.2-38.17h-168.16l3.99,3.56Z"/><path class="cls-45" d="m1433.28,100.52c.01.18.03.35.04.5-.01-.16-.03-.33-.04-.5Z"/><path class="cls-19" d="m1262.75,107.75c-.43-1.93-.75-3.89-.95-5.84,0,0,0-.06-.02-.15,0-.04-.01-.08-.02-.12-.02-.12-.05-.28-.08-.46-.02-.1-.03-.18-.04-.27,0-.04-.01-.09-.02-.13-.02-.1-.03-.2-.05-.29-.02-.12-.04-.24-.06-.36,0-.04-.01-.08-.02-.12,0-.05-.02-.1-.03-.15h-30.13v29.99l31.42-22.08Z"/><path class="cls-45" d="m1261.46,99.84c0,.05.02.1.03.15,0,.04.01.08.02.12.02.11.04.23.06.36.02.1.03.2.05.29,0,.04.01.09.02.13.02.09.03.19.04.27.02.14.05.3.08.46,0,.05.01.09.02.12,0,.05.02.1.02.15-.07-.68-.11-1.37-.15-2.07h-.19Z"/><path class="cls-45" d="m1261.46,99.84c0,.05.02.1.03.15,0-.05-.02-.1-.03-.15h0Z"/><path class="cls-45" d="m1261.79,101.91c0-.05-.02-.1-.02-.15.02.09.02.15.02.15Z"/><path class="cls-45" d="m1261.56,100.47c-.02-.12-.04-.25-.06-.36.02.12.04.24.06.36Z"/><path class="cls-45" d="m1261.61,100.77c-.02-.1-.03-.19-.05-.29.02.09.03.19.05.29Z"/><path class="cls-20" d="m1264.95,99.84h-3.3c.03.69.08,1.39.15,2.07.2,1.96.52,3.91.95,5.84l6.19-4.35-3.99-3.56Z"/><path class="cls-45" d="m1261.5,100.11s-.01-.08-.02-.12c0,.04.01.08.02.12Z"/><path class="cls-45" d="m1261.63,100.9s-.01-.09-.02-.13c0,.04.01.09.02.13Z"/><path class="cls-45" d="m1261.75,101.63c-.03-.16-.05-.32-.08-.46.03.18.06.34.08.46Z"/><path class="cls-45" d="m1261.77,101.75s-.01-.08-.02-.12c0,.04.01.08.02.12Z"/><path class="cls-45" d="m1261.67,101.17c-.01-.09-.03-.18-.04-.27.01.09.03.18.04.27Z"/><path d="m1423.74,87.15c3.22,0,3.22-5,0-5s-3.22,5,0,5h0Z"/><polygon class="cls-39" points="1782.23 688.81 1809.28 690.05 1795.75 670.98 1782.23 688.81"/><path class="cls-34" d="m1759.28,720.58h73.81c0-20.73-16.8-37.53-37.53-37.53-18.9,0-34.53,13.97-37.14,32.15l3.42,2.97-2.56,2.41Z"/><path class="cls-39" d="m1758.42,715.2l-11.78-10.23v15.62h11.39c0-1.83.14-3.62.39-5.38Z"/><path class="cls-34" d="m1759.28,720.58l2.56-2.41-3.42-2.97c-.25,1.76-.39,3.55-.39,5.38h1.25Z"/><path class="cls-41" d="m1758.06,721.73c.61,20.2,17.16,36.38,37.5,36.38s37.53-16.8,37.53-37.53h-73.81l-1.22,1.15Z"/><path class="cls-22" d="m1758.06,721.73c-.01-.38-.03-.76-.03-1.15h-11.39v11.88l11.42-10.74Z"/><path class="cls-41" d="m1758.03,720.58c0,.38.02.77.03,1.15l1.22-1.15h-1.25Z"/><path d="m1824.06,715.38c3.22,0,3.22-5,0-5s-3.22,5,0,5h0Z"/><polygon class="cls-7" points="126.46 427.45 73.71 469 73.71 389.05 126.46 427.45"/><polygon class="cls-31" points="112.15 427.74 73.71 427.74 73.71 470.56 126.46 429.01 112.15 427.74"/><polygon class="cls-7" points="183.63 375.76 210.11 381.45 199.92 360.41 183.63 375.76"/><polygon class="cls-7" points="174.34 377.54 201.4 376.49 186.31 358.63 174.34 377.54"/><polygon class="cls-7" points="166.42 382.85 192.08 374.17 172.54 361.33 166.42 382.85"/><ellipse class="cls-10" cx="194.78" cy="432.93" rx="84.34" ry="60.84"/><path class="cls-10" d="m265.8,417.82c3.22,0,3.22-5,0-5s-3.22,5,0,5h0Z"/><path class="cls-36" d="m265.17,419.7c3.22,0,3.22-5,0-5s-3.22,5,0,5h0Z"/><path class="cls-9" d="m112.15,427.74l166.17,1.18s-1.17,24.62-4.55,24.33-7.94,23.16-40.39,33.71c-32.45,10.55-56.99,6.29-65.3,3.98-8.31-2.31-24.24-6.1-37.59-17.99s-19.15-23.66-19.89-31.77,1.56-13.45,1.56-13.45Z"/><polygon class="cls-7" points="1628.06 961.56 1579.88 991.91 1579.88 933.51 1628.06 961.56"/><polygon class="cls-31" points="1614.99 961.77 1579.88 961.77 1579.88 993.05 1628.06 962.7 1614.99 961.77"/><polygon class="cls-7" points="1680.29 923.8 1704.48 927.96 1695.17 912.59 1680.29 923.8"/><polygon class="cls-7" points="1671.8 925.1 1696.52 924.33 1682.73 911.29 1671.8 925.1"/><polygon class="cls-7" points="1664.57 928.98 1688 922.64 1670.16 913.26 1664.57 928.98"/><ellipse class="cls-10" cx="1690.47" cy="965.56" rx="77.05" ry="44.44"/><path class="cls-10" d="m1755.35,955.2c3.22,0,3.22-5,0-5s-3.22,5,0,5h0Z"/><path class="cls-36" d="m1754.78,956.57c3.22,0,3.22-5,0-5s-3.22,5,0,5h0Z"/><path class="cls-9" d="m1614.99,961.77l151.8.86s-1.07,17.98-4.16,17.78-7.25,16.92-36.9,24.62c-29.65,7.71-52.06,4.59-59.65,2.91-7.59-1.68-22.14-4.46-34.34-13.14-12.2-8.68-17.49-17.28-18.17-23.21s1.42-9.82,1.42-9.82Z"/><ellipse class="cls-42" cx="89.42" cy="207.63" rx="10.89" ry="6.85" transform="translate(-129.49 151.19) rotate(-52.24)"/><ellipse class="cls-35" cx="155.93" cy="178.9" rx="14.43" ry="9.46"/><ellipse class="cls-42" cx="126.62" cy="177.9" rx="13.77" ry="8.46"/><path d="m182.92,213.58c3.22,0,3.22-5,0-5s-3.22,5,0,5h0Z"/><ellipse class="cls-35" cx="104.26" cy="188.48" rx="10.89" ry="6.85" transform="translate(-108.59 155.49) rotate(-52.24)"/><polygon class="cls-8" points="171.29 178.9 111.71 178.9 81.92 220.43 201.09 220.43 171.29 178.9"/><polygon class="cls-35" points="57.77 189.77 57.77 220.43 81.92 220.43 57.77 189.77"/><polygon class="cls-14" points="171.29 261.97 201.09 220.43 201.09 220.43 81.92 220.43 111.71 261.97 171.29 261.97"/><polygon class="cls-42" points="81.92 220.43 57.77 220.43 57.77 250.98 81.92 220.43"/><path d="m186.16,215.02c3.22,0,3.22-5,0-5s-3.22,5,0,5h0Z"/><ellipse class="cls-42" cx="1370.83" cy="892.06" rx="10.89" ry="6.85" transform="translate(-173.84 1429.58) rotate(-52.24)"/><ellipse class="cls-35" cx="1437.34" cy="863.33" rx="14.43" ry="9.46"/><ellipse class="cls-42" cx="1408.03" cy="862.33" rx="13.77" ry="8.46"/><path d="m1464.33,898c3.22,0,3.22-5,0-5s-3.22,5,0,5h0Z"/><ellipse class="cls-35" cx="1385.67" cy="872.91" rx="10.89" ry="6.85" transform="translate(-152.95 1433.88) rotate(-52.24)"/><polygon class="cls-8" points="1452.71 863.33 1393.12 863.33 1363.33 904.86 1482.5 904.86 1452.71 863.33"/><polygon class="cls-35" points="1339.18 874.19 1339.18 904.86 1363.33 904.86 1339.18 874.19"/><polygon class="cls-14" points="1452.71 946.39 1482.5 904.86 1482.5 904.86 1363.33 904.86 1393.12 946.39 1452.71 946.39"/><polygon class="cls-42" points="1363.33 904.86 1339.18 904.86 1339.18 935.41 1363.33 904.86"/><path d="m1467.57,899.45c3.22,0,3.22-5,0-5s-3.22,5,0,5h0Z"/><ellipse class="cls-42" cx="1284.35" cy="220.82" rx="8.08" ry="5.07" transform="translate(335.27 1113.89) rotate(-53.01)"/><ellipse class="cls-35" cx="1333.29" cy="199.42" rx="10.62" ry="7.04"/><ellipse class="cls-42" cx="1311.72" cy="198.68" rx="10.13" ry="6.3"/><path d="m1353.15,225.89c3.22,0,3.22-5,0-5s-3.22,5,0,5h0Z"/><ellipse class="cls-35" cx="1295.27" cy="206.56" rx="8.08" ry="5.07" transform="translate(351.01 1116.92) rotate(-53.01)"/><polygon class="cls-8" points="1344.6 199.42 1300.75 199.42 1278.83 230.36 1366.52 230.36 1344.6 199.42"/><polygon class="cls-35" points="1261.06 207.52 1261.06 230.36 1278.83 230.36 1261.06 207.52"/><polygon class="cls-14" points="1344.6 261.29 1366.52 230.36 1366.52 230.36 1278.83 230.36 1300.75 261.29 1344.6 261.29"/><polygon class="cls-42" points="1278.83 230.36 1261.06 230.36 1261.06 253.11 1278.83 230.36"/><path d="m1355.54,226.97c3.22,0,3.22-5,0-5s-3.22,5,0,5h0Z"/><polygon class="cls-7" points="734.96 736.2 718.53 745.19 718.53 727.88 734.96 736.2"/><polygon class="cls-31" points="730.51 736.26 718.53 736.26 718.53 745.53 734.96 736.53 730.51 736.26"/><polygon class="cls-7" points="752.77 725 761.02 726.23 757.85 721.68 752.77 725"/><polygon class="cls-7" points="749.88 725.39 758.31 725.16 753.61 721.29 749.88 725.39"/><polygon class="cls-7" points="747.41 726.54 755.4 724.66 749.32 721.87 747.41 726.54"/><ellipse class="cls-10" cx="756.25" cy="737.38" rx="26.27" ry="13.18"/><path class="cls-10" d="m778.37,736.07c3.22,0,3.22-5,0-5s-3.22,5,0,5h0Z"/><path class="cls-36" d="m778.18,736.47c3.22,0,3.22-5,0-5s-3.22,5,0,5h0Z"/><path class="cls-9" d="m730.51,736.26l51.77.26s-.36,5.33-1.42,5.27-2.47,5.02-12.58,7.3c-10.11,2.28-17.75,1.36-20.34.86s-7.55-1.32-11.71-3.9-5.96-5.12-6.2-6.88.49-2.91.49-2.91Z"/><rect class="cls-32" x="120.33" y="41.91" width="53.89" height="4.86" rx="2.01" ry="2.01"/><polygon class="cls-5" points="210.13 61.86 178.86 45.51 116.33 45.51 89.53 59.53 92.27 61.86 210.13 61.86"/><polygon class="cls-32" points="89.53 59.53 73.37 45.81 73.37 61.86 85.07 61.86 89.53 59.53"/><polygon class="cls-32" points="92.27 61.86 89.53 59.53 85.07 61.86 92.27 61.86"/><polygon class="cls-27" points="89.21 64.03 116.33 78.22 178.86 78.22 210.13 61.86 92.27 61.86 89.21 64.03"/><polygon class="cls-24" points="89.21 64.03 85.07 61.86 73.37 61.86 73.37 75.24 89.21 64.03"/><polygon class="cls-24" points="85.07 61.86 89.21 64.03 92.27 61.86 85.07 61.86"/><path d="m181.22,58.43c3.22,0,3.22-5,0-5s-3.22,5,0,5h0Z"/><rect class="cls-32" x="524.14" y="1018.91" width="53.89" height="4.86" rx="2.01" ry="2.01"/><polygon class="cls-5" points="613.94 1038.87 582.68 1022.51 520.15 1022.51 493.34 1036.54 496.09 1038.87 613.94 1038.87"/><polygon class="cls-32" points="493.34 1036.54 477.19 1022.81 477.19 1038.87 488.88 1038.87 493.34 1036.54"/><polygon class="cls-32" points="496.09 1038.87 493.34 1036.54 488.88 1038.87 496.09 1038.87"/><polygon class="cls-27" points="493.02 1041.04 520.15 1055.22 582.68 1055.22 613.94 1038.87 496.09 1038.87 493.02 1041.04"/><polygon class="cls-24" points="493.02 1041.04 488.88 1038.87 477.19 1038.87 477.19 1052.24 493.02 1041.04"/><polygon class="cls-24" points="488.88 1038.87 493.02 1041.04 496.09 1038.87 488.88 1038.87"/><path d="m585.04,1035.44c3.22,0,3.22-5,0-5s-3.22,5,0,5h0Z"/><path class="cls-21" d="m1808.36,419.12c-22.99-15.15-44.62-30.13-64.77-47.37,7.58-.87,16.2,2.02,24.27.88,18.3,11.08,36.3,23.8,53.67,35.7-4.33,3.63-8.72,7.23-13.17,10.79Z"/><polygon class="cls-21" points="1741.44 434.52 1697.37 404.82 1697.37 438.41 1741.44 438.41 1741.44 434.52"/><path class="cls-38" d="m1745.93,438.41h120.59v-14.5c0-13.78-15.45-24.95-34.51-24.95h-56.06c-19.06,0-34.51,11.17-34.51,24.95v10.6l5.13,3.46-.63.44Z"/><polygon class="cls-38" points="1745.93 438.41 1746.56 437.98 1741.44 434.52 1741.44 438.41 1745.93 438.41"/><polygon class="cls-26" points="1741.44 441.52 1741.44 438.41 1697.37 438.41 1697.37 472.01 1741.44 441.52"/><path class="cls-18" d="m1741.44,441.52v14.81c0,13.78,15.45,24.95,34.51,24.95h56.06c19.06,0,34.51-11.17,34.51-24.95v-17.92h-120.59l-4.49,3.11Z"/><polygon class="cls-18" points="1741.44 438.41 1741.44 441.52 1745.93 438.41 1741.44 438.41"/><path d="m1853.78,430.32c3.22,0,3.22-5,0-5s-3.22,5,0,5h0Z"/></svg>